<svg xmlns="http://www.w3.org/2000/svg" width="100" height="100" viewBox="0 0 100 100">
  <g id="Group_462" data-name="Group 462" transform="translate(4086.741 12105)">
    <circle id="Ellipse_101" data-name="Ellipse 101" cx="50" cy="50" r="50" transform="translate(-4086.741 -12105)" fill="#fff"/>
    <g id="mixer" transform="translate(-4061.82 -12077.698)">
      <g id="Group_445" data-name="Group 445" transform="translate(17.126 9.438)">
        <g id="Group_444" data-name="Group 444" transform="translate(0 0)">
          <path id="Path_574" data-name="Path 574" d="M185.143,110.825a7.563,7.563,0,1,0,7.563,7.563A7.571,7.571,0,0,0,185.143,110.825Zm0,11.375a3.813,3.813,0,1,1,3.813-3.813A3.817,3.817,0,0,1,185.143,122.2Z" transform="translate(-177.58 -110.825)" fill="#4b4b51"/>
        </g>
      </g>
      <g id="Group_447" data-name="Group 447" transform="translate(22.813 20.876)">
        <g id="Group_446" data-name="Group 446">
          <path id="Path_575" data-name="Path 575" d="M238.432,229.428a1.875,1.875,0,0,0-1.875,1.875v22.251a1.875,1.875,0,1,0,3.75,0V231.3A1.875,1.875,0,0,0,238.432,229.428Z" transform="translate(-236.557 -229.428)" fill="#4b4b51"/>
        </g>
      </g>
      <g id="Group_449" data-name="Group 449" transform="translate(22.813 0)">
        <g id="Group_448" data-name="Group 448">
          <path id="Path_576" data-name="Path 576" d="M238.432,12.962a1.875,1.875,0,0,0-1.875,1.875v9.438a1.875,1.875,0,0,0,3.75,0V14.837A1.875,1.875,0,0,0,238.432,12.962Z" transform="translate(-236.557 -12.962)" fill="#4b4b51"/>
        </g>
      </g>
      <g id="Group_451" data-name="Group 451" transform="translate(34.251 22.313)">
        <g id="Group_450" data-name="Group 450">
          <path id="Path_577" data-name="Path 577" d="M362.723,244.334a7.563,7.563,0,1,0,7.563,7.563A7.572,7.572,0,0,0,362.723,244.334Zm0,11.376a3.813,3.813,0,1,1,3.813-3.813A3.817,3.817,0,0,1,362.723,255.71Z" transform="translate(-355.16 -244.334)" fill="#4b4b51"/>
        </g>
      </g>
      <g id="Group_453" data-name="Group 453" transform="translate(39.939 33.689)">
        <g id="Group_452" data-name="Group 452">
          <path id="Path_578" data-name="Path 578" d="M416.012,362.289a1.875,1.875,0,0,0-1.875,1.875V373.6a1.875,1.875,0,0,0,3.75,0v-9.438A1.875,1.875,0,0,0,416.012,362.289Z" transform="translate(-414.137 -362.289)" fill="#4b4b51"/>
        </g>
      </g>
      <g id="Group_455" data-name="Group 455" transform="translate(39.939 0)">
        <g id="Group_454" data-name="Group 454">
          <path id="Path_579" data-name="Path 579" d="M416.012,12.962a1.875,1.875,0,0,0-1.875,1.875V37.088a1.875,1.875,0,0,0,3.75,0V14.837A1.875,1.875,0,0,0,416.012,12.962Z" transform="translate(-414.137 -12.962)" fill="#4b4b51"/>
        </g>
      </g>
      <g id="Group_457" data-name="Group 457" transform="translate(0 22.313)">
        <g id="Group_456" data-name="Group 456">
          <path id="Path_580" data-name="Path 580" d="M7.563,244.334a7.563,7.563,0,1,0,7.563,7.563A7.571,7.571,0,0,0,7.563,244.334Zm0,11.376a3.813,3.813,0,1,1,3.813-3.813A3.817,3.817,0,0,1,7.563,255.71Z" transform="translate(0 -244.334)" fill="#4b4b51"/>
        </g>
      </g>
      <g id="Group_459" data-name="Group 459" transform="translate(5.688 33.689)">
        <g id="Group_458" data-name="Group 458">
          <path id="Path_581" data-name="Path 581" d="M60.852,362.289a1.875,1.875,0,0,0-1.875,1.875V373.6a1.875,1.875,0,0,0,3.75,0v-9.438A1.875,1.875,0,0,0,60.852,362.289Z" transform="translate(-58.977 -362.289)" fill="#4b4b51"/>
        </g>
      </g>
      <g id="Group_461" data-name="Group 461" transform="translate(5.688 0)">
        <g id="Group_460" data-name="Group 460">
          <path id="Path_582" data-name="Path 582" d="M60.852,12.962a1.875,1.875,0,0,0-1.875,1.875V37.088a1.875,1.875,0,1,0,3.75,0V14.837A1.875,1.875,0,0,0,60.852,12.962Z" transform="translate(-58.977 -12.962)" fill="#4b4b51"/>
        </g>
      </g>
    </g>
  </g>
</svg>
