<?xml version="1.0" encoding="iso-8859-1"?>
<!-- Generator: Adobe Illustrator 19.0.0, SVG Export Plug-In . SVG Version: 6.00 Build 0)  -->
<svg version="1.1" id="Capa_1" xmlns="http://www.w3.org/2000/svg" xmlns:xlink="http://www.w3.org/1999/xlink" x="0px" y="0px"
	 viewBox="0 0 384 384" style="enable-background:new 0 0 384 384;" xml:space="preserve">
<g>
	<g>
		<path id="gps-path-1" fill="#00a4eb" d="M192,136c-30.872,0-56,25.12-56,56s25.128,56,56,56s56-25.12,56-56S222.872,136,192,136z M192,216
			c-13.232,0-24-10.768-24-24s10.768-24,24-24s24,10.768,24,24S205.232,216,192,216z"/>
	</g>
</g>
<g>
	<g>
		<path id="gps-path-2" fill="#00a4eb" d="M368,176h-32.944C327.648,109.368,274.632,56.352,208,48.944V16c0-8.832-7.168-16-16-16c-8.832,0-16,7.168-16,16v32.944
			C109.368,56.352,56.352,109.368,48.944,176H16c-8.832,0-16,7.168-16,16c0,8.832,7.168,16,16,16h32.944
			C56.352,274.632,109.368,327.648,176,335.056V368c0,8.832,7.168,16,16,16c8.832,0,16-7.168,16-16v-32.944
			c66.632-7.408,119.648-60.424,127.056-127.056H368c8.832,0,16-7.168,16-16C384,183.168,376.832,176,368,176z M192,304
			c-61.76,0-112-50.24-112-112S130.24,80,192,80s112,50.24,112,112S253.76,304,192,304z"/>
	</g>
</g>
<g>
</g>
<g>
</g>
<g>
</g>
<g>
</g>
<g>
</g>
<g>
</g>
<g>
</g>
<g>
</g>
<g>
</g>
<g>
</g>
<g>
</g>
<g>
</g>
<g>
</g>
<g>
</g>
<g>
</g>
</svg>
