<svg
        id="Layer_1" data-name="Layer 1"
        xmlns="http://www.w3.org/2000/svg"
        viewBox="0 0 132.82 132.82">
    <defs>
        <style>.cls-1{fill:#fff;}.cls-2{fill:#00a4eb;}</style>
    </defs>
    <title>gps_new</title>
    <g id="Group_422" data-name="Group 422">
        <path id="Path_492" data-name="Path 492" class="cls-1" d="M66.41,0A66.41,66.41,0,1,1,0,66.41,66.41,66.41,0,0,1,66.41,0Z"/>
        <g id="gps">
            <g id="Group_419" data-name="Group 419">
                <g id="Group_418" data-name="Group 418">
                    <path
                            id="gps-path-1"
                            class="cls-2"
                            d="M67.26,52.47A13.79,13.79,0,1,0,81,66.26,13.78,13.78,0,0,0,67.26,52.47Zm0,19.69a5.91,5.91,0,1,1,5.9-5.9h0A5.9,5.9,0,0,1,67.26,72.16Z"/>
                </g>
            </g>
            <g id="Group_421" data-name="Group 421">
                <g id="Group_420" data-name="Group 420">
                    <path id="gps-path-2" class="cls-2" d="M110.57,62.32h-8.1A35.5,35.5,0,0,0,71.19,31.05V22.94a3.94,3.94,0,1,0-7.87,0h0v8.11A35.48,35.48,0,0,0,32.05,62.32H23.94a3.94,3.94,0,1,0,0,7.87h8.11a35.5,35.5,0,0,0,31.27,31.28v8.1a3.94,3.94,0,1,0,7.87,0v-8.1a35.52,35.52,0,0,0,31.28-31.28h8.1a3.94,3.94,0,1,0,0-7.87ZM67.26,93.82A27.57,27.57,0,1,1,94.82,66.25h0A27.6,27.6,0,0,1,67.26,93.82Z"/></g></g></g></g></svg>
