<?xml version="1.0" encoding="utf-8"?>
<!-- Generator: Adobe Illustrator 24.0.2, SVG Export Plug-In . SVG Version: 6.00 Build 0)  -->
<svg version="1.1" id="Layer_1" xmlns="http://www.w3.org/2000/svg" xmlns:xlink="http://www.w3.org/1999/xlink" x="0px" y="0px"
	 viewBox="0 0 318 34" style="enable-background:new 0 0 318 34;" xml:space="preserve">
<style type="text/css">
	.st0{fill:#FFFFFF;}
	.st1{fill:#37C5AB;}
	.st2{fill:#2D2D61;}
	.st3{enable-background:new    ;}
	.st4{fill:#26262C;}
	.st5{fill:#EA4E9D;}
	.st6{fill:#2282FF;}
</style>
<g id="english" transform="translate(21398 17138)">
	<g id="Rectangle_153">
		<path class="st0" d="M-21393-17138h308c2.8,0,5,2.2,5,5v24c0,2.8-2.2,5-5,5h-308c-2.8,0-5-2.2-5-5v-24
			C-21398-17135.8-21395.8-17138-21393-17138z"/>
	</g>
	<g id="Group_405" transform="translate(-21378 -17128)">
		<g id="Path_453">
			<path class="st1" d="M7.5,0C11.6,0,15,3.4,15,7.5S11.6,15,7.5,15S0,11.6,0,7.5S3.4,0,7.5,0z"/>
		</g>
		<g id="Path_454">
			<path class="st2" d="M7.5,15C3.4,15,0,11.6,0,7.5S3.4,0,7.5,0S15,3.4,15,7.5S11.6,15,7.5,15z M7.5,0.7c-3.7,0-6.8,3-6.8,6.8
				s3,6.8,6.8,6.8s6.8-3,6.8-6.8S11.2,0.7,7.5,0.7L7.5,0.7z"/>
		</g>
	</g>
	<g class="st3">
		<path class="st4" d="M-21355.6-17123.5h2.2c0.8,0,1.4,0.2,1.9,0.5c0.5,0.3,0.7,0.9,0.7,1.6c0,0.7-0.2,1.3-0.7,1.6
			c-0.5,0.4-1.1,0.5-1.8,0.5h-0.8v2.3h-1.4V-17123.5z M-21353.4-17120.4c0.9,0,1.3-0.4,1.3-1.1c0-0.3-0.1-0.6-0.3-0.8
			c-0.2-0.2-0.5-0.2-1-0.2h-0.7v2.1H-21353.4z"/>
		<path class="st4" d="M-21349.1-17117.2c-0.4-0.2-0.7-0.5-0.9-0.9s-0.3-0.9-0.3-1.4c0-0.5,0.1-1,0.3-1.4c0.2-0.4,0.5-0.7,0.9-0.9
			c0.4-0.2,0.8-0.3,1.2-0.3c0.4,0,0.8,0.1,1.2,0.3c0.4,0.2,0.7,0.5,0.9,0.9c0.2,0.4,0.3,0.9,0.3,1.4c0,0.5-0.1,1-0.3,1.4
			c-0.2,0.4-0.5,0.7-0.9,0.9c-0.4,0.2-0.8,0.3-1.2,0.3C-21348.3-17116.9-21348.7-17117-21349.1-17117.2z M-21347.2-17118.4
			c0.2-0.3,0.3-0.6,0.3-1.1c0-0.5-0.1-0.8-0.3-1.1c-0.2-0.3-0.4-0.4-0.7-0.4c-0.3,0-0.6,0.1-0.7,0.4c-0.2,0.3-0.3,0.6-0.3,1.1
			c0,0.5,0.1,0.8,0.3,1.1s0.4,0.4,0.7,0.4C-21347.6-17118-21347.3-17118.1-21347.2-17118.4z"/>
		<path class="st4" d="M-21344.1-17117.1c-0.3-0.1-0.6-0.3-0.9-0.5l0.6-0.9c0.2,0.2,0.5,0.3,0.7,0.4c0.2,0.1,0.4,0.1,0.6,0.1
			c0.2,0,0.4,0,0.5-0.1s0.2-0.2,0.2-0.4c0-0.1,0-0.2-0.1-0.3s-0.2-0.2-0.4-0.2c-0.2-0.1-0.3-0.1-0.5-0.2c-0.4-0.2-0.7-0.3-1-0.6
			c-0.3-0.2-0.4-0.5-0.4-0.9c0-0.5,0.2-0.8,0.5-1.1c0.3-0.3,0.8-0.4,1.3-0.4c0.6,0,1.2,0.2,1.7,0.6l-0.6,0.8
			c-0.4-0.3-0.7-0.4-1.1-0.4c-0.2,0-0.4,0-0.5,0.1c-0.1,0.1-0.2,0.2-0.2,0.3s0.1,0.2,0.2,0.3c0.1,0.1,0.3,0.2,0.5,0.2
			c0.2,0.1,0.3,0.1,0.3,0.1c0.4,0.2,0.8,0.3,1,0.6c0.2,0.2,0.4,0.5,0.4,0.9c0,0.3-0.1,0.6-0.2,0.8c-0.2,0.2-0.4,0.4-0.7,0.6
			c-0.3,0.1-0.7,0.2-1.1,0.2C-21343.4-17116.9-21343.7-17116.9-21344.1-17117.1z"/>
		<path class="st4" d="M-21339.6-17117.4c-0.3-0.3-0.4-0.8-0.4-1.4v-2.1h-0.7v-1l0.8-0.1l0.2-1.3h1.1v1.3h1.2v1.1h-1.2v2.1
			c0,0.5,0.2,0.8,0.7,0.8c0.1,0,0.3,0,0.5-0.1l0.2,1c-0.4,0.1-0.7,0.2-1.1,0.2C-21338.9-17116.9-21339.4-17117-21339.6-17117.4z"/>
		<path class="st4" d="M-21332.6-17119.1h-3.1c0.1,0.4,0.2,0.7,0.5,0.9c0.3,0.2,0.6,0.3,0.9,0.3c0.4,0,0.7-0.1,1.1-0.3l0.4,0.8
			c-0.2,0.2-0.5,0.3-0.8,0.4s-0.6,0.1-0.9,0.1c-0.5,0-0.9-0.1-1.3-0.3c-0.4-0.2-0.7-0.5-0.9-0.9s-0.3-0.9-0.3-1.4
			c0-0.5,0.1-1,0.3-1.4s0.5-0.7,0.9-0.9c0.4-0.2,0.7-0.3,1.1-0.3c0.7,0,1.2,0.2,1.6,0.7c0.4,0.4,0.5,1,0.5,1.7
			C-21332.5-17119.4-21332.6-17119.2-21332.6-17119.1z M-21333.7-17120c0-0.3-0.1-0.6-0.2-0.8s-0.4-0.3-0.7-0.3
			c-0.2,0-0.5,0.1-0.7,0.3c-0.2,0.2-0.3,0.4-0.4,0.8H-21333.7z"/>
		<path class="st4" d="M-21331.2-17117.6c-0.4-0.5-0.5-1.1-0.5-1.9c0-0.5,0.1-1,0.3-1.4c0.2-0.4,0.4-0.7,0.8-0.9
			c0.3-0.2,0.7-0.3,1-0.3c0.3,0,0.5,0,0.7,0.1c0.2,0.1,0.4,0.2,0.6,0.4l0-0.8v-1.7h1.4v7h-1.1l-0.1-0.5h0c-0.2,0.2-0.4,0.3-0.6,0.5
			s-0.5,0.2-0.7,0.2C-21330.4-17116.9-21330.9-17117.1-21331.2-17117.6z M-21328.9-17118.1c0.1-0.1,0.3-0.2,0.4-0.4v-2.1
			c-0.3-0.2-0.5-0.3-0.9-0.3c-0.3,0-0.5,0.1-0.7,0.4s-0.3,0.6-0.3,1.1c0,0.5,0.1,0.9,0.3,1.1c0.2,0.3,0.4,0.4,0.7,0.4
			C-21329.2-17118-21329.1-17118-21328.9-17118.1z"/>
		<path class="st4" d="M-21321.9-17117c-0.2-0.1-0.4-0.3-0.6-0.5h0l-0.1,0.5h-1.1v-7h1.4v1.8l0,0.8c0.2-0.2,0.4-0.3,0.6-0.4
			c0.2-0.1,0.5-0.2,0.7-0.2c0.6,0,1.1,0.2,1.4,0.7s0.5,1.1,0.5,1.8c0,0.5-0.1,1-0.3,1.4s-0.4,0.7-0.8,0.9c-0.3,0.2-0.7,0.3-1,0.3
			C-21321.5-17116.9-21321.7-17116.9-21321.9-17117z M-21320.8-17118.4c0.2-0.3,0.3-0.6,0.3-1.1c0-0.9-0.3-1.4-0.9-1.4
			c-0.3,0-0.6,0.2-0.9,0.5v2.1c0.3,0.2,0.5,0.3,0.9,0.3C-21321.3-17118-21321-17118.1-21320.8-17118.4z"/>
		<path class="st4" d="M-21314.1-17119.1h-3.1c0.1,0.4,0.2,0.7,0.5,0.9c0.3,0.2,0.6,0.3,0.9,0.3c0.4,0,0.7-0.1,1.1-0.3l0.4,0.8
			c-0.2,0.2-0.5,0.3-0.8,0.4c-0.3,0.1-0.6,0.1-0.9,0.1c-0.5,0-0.9-0.1-1.3-0.3c-0.4-0.2-0.7-0.5-0.9-0.9s-0.3-0.9-0.3-1.4
			c0-0.5,0.1-1,0.3-1.4s0.5-0.7,0.9-0.9c0.4-0.2,0.7-0.3,1.1-0.3c0.7,0,1.2,0.2,1.6,0.7c0.4,0.4,0.5,1,0.5,1.7
			C-21314-17119.4-21314-17119.2-21314.1-17119.1z M-21315.2-17120c0-0.3-0.1-0.6-0.2-0.8c-0.1-0.2-0.4-0.3-0.7-0.3
			c-0.2,0-0.5,0.1-0.7,0.3c-0.2,0.2-0.3,0.4-0.4,0.8H-21315.2z"/>
		<path class="st4" d="M-21311.4-17122.3v0.4h0.9v1.1h-0.9v3.9h-1.4v-3.9h-0.7v-1l0.7-0.1v-0.3c0-0.6,0.1-1,0.4-1.4s0.7-0.5,1.3-0.5
			c0.3,0,0.7,0.1,1,0.2l-0.3,1c-0.2-0.1-0.4-0.1-0.5-0.1C-21311.2-17123.1-21311.4-17122.8-21311.4-17122.3z"/>
		<path class="st4" d="M-21308.9-17117.2c-0.4-0.2-0.7-0.5-0.9-0.9c-0.2-0.4-0.3-0.9-0.3-1.4c0-0.5,0.1-1,0.3-1.4
			c0.2-0.4,0.5-0.7,0.9-0.9c0.4-0.2,0.8-0.3,1.2-0.3c0.4,0,0.8,0.1,1.2,0.3c0.4,0.2,0.7,0.5,0.9,0.9c0.2,0.4,0.3,0.9,0.3,1.4
			c0,0.5-0.1,1-0.3,1.4c-0.2,0.4-0.5,0.7-0.9,0.9c-0.4,0.2-0.8,0.3-1.2,0.3C-21308.1-17116.9-21308.5-17117-21308.9-17117.2z
			 M-21307-17118.4c0.2-0.3,0.3-0.6,0.3-1.1c0-0.5-0.1-0.8-0.3-1.1c-0.2-0.3-0.4-0.4-0.7-0.4c-0.3,0-0.6,0.1-0.7,0.4
			c-0.2,0.3-0.3,0.6-0.3,1.1c0,0.5,0.1,0.8,0.3,1.1c0.2,0.3,0.4,0.4,0.7,0.4C-21307.4-17118-21307.1-17118.1-21307-17118.4z"/>
		<path class="st4" d="M-21304.3-17121.9h1.1l0.1,0.9h0c0.2-0.3,0.4-0.6,0.6-0.7c0.3-0.2,0.5-0.3,0.8-0.3c0.2,0,0.4,0,0.6,0.1
			l-0.2,1.2c0,0-0.1,0-0.2,0c-0.1,0-0.2,0-0.3,0c-0.2,0-0.4,0.1-0.6,0.2c-0.2,0.2-0.4,0.4-0.5,0.7v2.9h-1.4V-17121.9z"/>
		<path class="st4" d="M-21296.4-17119.1h-3.1c0.1,0.4,0.2,0.7,0.5,0.9c0.3,0.2,0.6,0.3,0.9,0.3c0.4,0,0.7-0.1,1.1-0.3l0.4,0.8
			c-0.2,0.2-0.5,0.3-0.8,0.4c-0.3,0.1-0.6,0.1-0.9,0.1c-0.5,0-0.9-0.1-1.3-0.3c-0.4-0.2-0.7-0.5-0.9-0.9s-0.3-0.9-0.3-1.4
			c0-0.5,0.1-1,0.3-1.4s0.5-0.7,0.9-0.9c0.4-0.2,0.7-0.3,1.1-0.3c0.7,0,1.2,0.2,1.5,0.7c0.4,0.4,0.5,1,0.5,1.7
			C-21296.4-17119.4-21296.4-17119.2-21296.4-17119.1z M-21297.5-17120c0-0.3-0.1-0.6-0.2-0.8s-0.4-0.3-0.7-0.3
			c-0.2,0-0.5,0.1-0.7,0.3c-0.2,0.2-0.3,0.4-0.4,0.8H-21297.5z"/>
	</g>
	<g class="st3">
		<path class="st4" d="M-21156.3-17123.5h2.2c0.8,0,1.4,0.2,1.9,0.5c0.5,0.3,0.7,0.9,0.7,1.6c0,0.7-0.2,1.3-0.7,1.6
			c-0.5,0.4-1.1,0.5-1.8,0.5h-0.8v2.3h-1.4V-17123.5z M-21154.1-17120.4c0.9,0,1.3-0.4,1.3-1.1c0-0.3-0.1-0.6-0.3-0.8
			c-0.2-0.2-0.6-0.2-1-0.2h-0.7v2.1H-21154.1z"/>
		<path class="st4" d="M-21149.8-17117.2c-0.4-0.2-0.7-0.5-0.9-0.9c-0.2-0.4-0.3-0.9-0.3-1.4c0-0.5,0.1-1,0.3-1.4
			c0.2-0.4,0.5-0.7,0.9-0.9c0.4-0.2,0.8-0.3,1.2-0.3c0.4,0,0.8,0.1,1.2,0.3c0.4,0.2,0.7,0.5,0.9,0.9c0.2,0.4,0.3,0.9,0.3,1.4
			c0,0.5-0.1,1-0.3,1.4s-0.5,0.7-0.9,0.9c-0.4,0.2-0.8,0.3-1.2,0.3C-21149-17116.9-21149.4-17117-21149.8-17117.2z
			 M-21147.9-17118.4c0.2-0.3,0.3-0.6,0.3-1.1c0-0.5-0.1-0.8-0.3-1.1c-0.2-0.3-0.4-0.4-0.7-0.4c-0.3,0-0.6,0.1-0.7,0.4
			c-0.2,0.3-0.3,0.6-0.3,1.1c0,0.5,0.1,0.8,0.3,1.1s0.4,0.4,0.7,0.4C-21148.3-17118-21148-17118.1-21147.9-17118.4z"/>
		<path class="st4" d="M-21144.8-17117.1c-0.3-0.1-0.6-0.3-0.9-0.5l0.6-0.9c0.2,0.2,0.5,0.3,0.7,0.4c0.2,0.1,0.4,0.1,0.6,0.1
			c0.2,0,0.4,0,0.5-0.1s0.2-0.2,0.2-0.4c0-0.1,0-0.2-0.1-0.3s-0.2-0.2-0.4-0.2c-0.2-0.1-0.3-0.1-0.5-0.2c-0.4-0.2-0.7-0.3-1-0.6
			c-0.3-0.2-0.4-0.5-0.4-0.9c0-0.5,0.2-0.8,0.5-1.1c0.3-0.3,0.8-0.4,1.3-0.4c0.6,0,1.2,0.2,1.7,0.6l-0.6,0.8
			c-0.4-0.3-0.7-0.4-1.1-0.4c-0.2,0-0.4,0-0.5,0.1s-0.2,0.2-0.2,0.3s0.1,0.2,0.2,0.3c0.1,0.1,0.3,0.2,0.5,0.2
			c0.2,0.1,0.3,0.1,0.3,0.1c0.4,0.2,0.8,0.3,1,0.6c0.2,0.2,0.4,0.5,0.4,0.9c0,0.3-0.1,0.6-0.2,0.8c-0.2,0.2-0.4,0.4-0.7,0.6
			s-0.7,0.2-1.1,0.2C-21144.1-17116.9-21144.4-17116.9-21144.8-17117.1z"/>
		<path class="st4" d="M-21140.3-17117.4c-0.3-0.3-0.4-0.8-0.4-1.4v-2.1h-0.7v-1l0.8-0.1l0.2-1.3h1.1v1.3h1.2v1.1h-1.2v2.1
			c0,0.5,0.2,0.8,0.7,0.8c0.1,0,0.3,0,0.5-0.1l0.2,1c-0.4,0.1-0.7,0.2-1.1,0.2C-21139.6-17116.9-21140.1-17117-21140.3-17117.4z"/>
		<path class="st4" d="M-21133.3-17119.1h-3.1c0.1,0.4,0.2,0.7,0.5,0.9c0.3,0.2,0.6,0.3,0.9,0.3c0.4,0,0.7-0.1,1.1-0.3l0.4,0.8
			c-0.2,0.2-0.5,0.3-0.8,0.4c-0.3,0.1-0.6,0.1-0.9,0.1c-0.5,0-0.9-0.1-1.3-0.3c-0.4-0.2-0.7-0.5-0.9-0.9s-0.3-0.9-0.3-1.4
			c0-0.5,0.1-1,0.3-1.4s0.5-0.7,0.9-0.9c0.4-0.2,0.7-0.3,1.1-0.3c0.7,0,1.2,0.2,1.6,0.7c0.4,0.4,0.5,1,0.5,1.7
			C-21133.2-17119.4-21133.3-17119.2-21133.3-17119.1z M-21134.4-17120c0-0.3-0.1-0.6-0.2-0.8c-0.1-0.2-0.4-0.3-0.7-0.3
			c-0.2,0-0.5,0.1-0.7,0.3c-0.2,0.2-0.3,0.4-0.4,0.8H-21134.4z"/>
		<path class="st4" d="M-21131.9-17117.6c-0.4-0.5-0.5-1.1-0.5-1.9c0-0.5,0.1-1,0.3-1.4s0.4-0.7,0.8-0.9c0.3-0.2,0.7-0.3,1-0.3
			c0.3,0,0.5,0,0.7,0.1c0.2,0.1,0.4,0.2,0.6,0.4l0-0.8v-1.7h1.4v7h-1.1l-0.1-0.5h0c-0.2,0.2-0.4,0.3-0.6,0.5
			c-0.2,0.1-0.5,0.2-0.7,0.2C-21131.1-17116.9-21131.6-17117.1-21131.9-17117.6z M-21129.6-17118.1c0.1-0.1,0.3-0.2,0.4-0.4v-2.1
			c-0.3-0.2-0.5-0.3-0.9-0.3c-0.3,0-0.5,0.1-0.7,0.4c-0.2,0.3-0.3,0.6-0.3,1.1c0,0.5,0.1,0.9,0.3,1.1c0.2,0.3,0.4,0.4,0.7,0.4
			C-21129.9-17118-21129.8-17118-21129.6-17118.1z"/>
		<path class="st4" d="M-21123.9-17117.4c-0.3-0.3-0.4-0.8-0.4-1.4v-2.1h-0.7v-1l0.8-0.1l0.2-1.3h1.1v1.3h1.2v1.1h-1.2v2.1
			c0,0.5,0.2,0.8,0.7,0.8c0.1,0,0.3,0,0.5-0.1l0.2,1c-0.4,0.1-0.7,0.2-1.1,0.2C-21123.2-17116.9-21123.6-17117-21123.9-17117.4z"/>
		<path class="st4" d="M-21120-17117.2c-0.4-0.2-0.7-0.5-0.9-0.9c-0.2-0.4-0.3-0.9-0.3-1.4c0-0.5,0.1-1,0.3-1.4
			c0.2-0.4,0.5-0.7,0.9-0.9c0.4-0.2,0.8-0.3,1.2-0.3c0.4,0,0.8,0.1,1.2,0.3c0.4,0.2,0.7,0.5,0.9,0.9c0.2,0.4,0.3,0.9,0.3,1.4
			c0,0.5-0.1,1-0.3,1.4c-0.2,0.4-0.5,0.7-0.9,0.9c-0.4,0.2-0.8,0.3-1.2,0.3C-21119.3-17116.9-21119.7-17117-21120-17117.2z
			 M-21118.1-17118.4c0.2-0.3,0.3-0.6,0.3-1.1c0-0.5-0.1-0.8-0.3-1.1c-0.2-0.3-0.4-0.4-0.7-0.4c-0.3,0-0.6,0.1-0.7,0.4
			c-0.2,0.3-0.3,0.6-0.3,1.1c0,0.5,0.1,0.8,0.3,1.1s0.4,0.4,0.7,0.4C-21118.5-17118-21118.3-17118.1-21118.1-17118.4z"/>
		<path class="st4" d="M-21115.1-17117.6c-0.4-0.5-0.5-1.1-0.5-1.9c0-0.5,0.1-1,0.3-1.4s0.4-0.7,0.8-0.9c0.3-0.2,0.7-0.3,1-0.3
			c0.3,0,0.5,0,0.7,0.1c0.2,0.1,0.4,0.2,0.6,0.4l-0.1-0.8v-1.7h1.4v7h-1.1l-0.1-0.5h0c-0.2,0.2-0.4,0.3-0.6,0.5
			c-0.2,0.1-0.5,0.2-0.7,0.2C-21114.3-17116.9-21114.8-17117.1-21115.1-17117.6z M-21112.8-17118.1c0.1-0.1,0.3-0.2,0.4-0.4v-2.1
			c-0.3-0.2-0.5-0.3-0.9-0.3c-0.3,0-0.5,0.1-0.7,0.4c-0.2,0.3-0.3,0.6-0.3,1.1c0,0.5,0.1,0.9,0.3,1.1s0.4,0.4,0.7,0.4
			C-21113.1-17118-21113-17118-21112.8-17118.1z"/>
		<path class="st4" d="M-21109.5-17117.3c-0.3-0.3-0.4-0.6-0.4-1.1c0-0.5,0.2-0.9,0.7-1.2c0.4-0.3,1.2-0.5,2.2-0.6
			c0-0.5-0.3-0.8-0.8-0.8c-0.2,0-0.4,0-0.6,0.1c-0.2,0.1-0.4,0.2-0.7,0.3l-0.5-0.9c0.7-0.4,1.4-0.7,2.1-0.7c0.6,0,1.1,0.2,1.4,0.6
			c0.3,0.4,0.5,0.9,0.5,1.7v2.9h-1.1l-0.1-0.5h0c-0.5,0.4-1,0.6-1.5,0.6C-21108.9-17116.9-21109.3-17117-21109.5-17117.3z
			 M-21107.6-17118.1c0.1-0.1,0.3-0.2,0.4-0.3v-0.9c-0.5,0.1-0.9,0.2-1.2,0.3c-0.2,0.1-0.4,0.3-0.4,0.6c0,0.2,0.1,0.3,0.2,0.4
			c0.1,0.1,0.3,0.1,0.5,0.1C-21107.8-17117.9-21107.7-17118-21107.6-17118.1z"/>
		<path class="st4" d="M-21104.7-17115.1l0.3-1.1c0.1,0,0.3,0.1,0.3,0.1c0.4,0,0.7-0.2,0.9-0.7l0.1-0.3l-1.9-4.8h1.4l0.8,2.2
			c0.1,0.2,0.2,0.5,0.3,0.9c0,0.2,0.1,0.3,0.1,0.5h0c0.1-0.4,0.2-0.8,0.3-1.4l0.7-2.2h1.3l-1.7,5.1c-0.2,0.6-0.5,1.1-0.8,1.4
			c-0.3,0.3-0.7,0.4-1.3,0.4C-21104.2-17115-21104.4-17115.1-21104.7-17115.1z"/>
	</g>
	<g id="Group_402" transform="translate(95 42)">
		<g id="Path_463">
			<path class="st5" d="M-21267.5-17170c4.1,0,7.5,3.4,7.5,7.5s-3.4,7.5-7.5,7.5s-7.5-3.4-7.5-7.5S-21271.6-17170-21267.5-17170z"/>
		</g>
		<g id="Path_464">
			<path class="st2" d="M-21267.5-17155c-4.1,0-7.5-3.4-7.5-7.5s3.4-7.5,7.5-7.5s7.5,3.4,7.5,7.5S-21263.4-17155-21267.5-17155z
				 M-21267.5-17169.3c-3.7,0-6.8,3-6.8,6.8s3,6.8,6.8,6.8s6.8-3,6.8-6.8S-21263.8-17169.3-21267.5-17169.3L-21267.5-17169.3z"/>
		</g>
	</g>
	<g class="st3">
		<path class="st4" d="M-21262.1-17123.5h2.2c0.8,0,1.4,0.2,1.9,0.5c0.5,0.3,0.7,0.9,0.7,1.6c0,0.7-0.2,1.3-0.7,1.6
			c-0.5,0.4-1.1,0.5-1.8,0.5h-0.8v2.3h-1.4V-17123.5z M-21260-17120.4c0.9,0,1.3-0.4,1.3-1.1c0-0.3-0.1-0.6-0.3-0.8
			c-0.2-0.2-0.5-0.2-1-0.2h-0.7v2.1H-21260z"/>
		<path class="st4" d="M-21255.6-17117.2c-0.4-0.2-0.7-0.5-0.9-0.9c-0.2-0.4-0.3-0.9-0.3-1.4c0-0.5,0.1-1,0.3-1.4
			c0.2-0.4,0.5-0.7,0.9-0.9c0.4-0.2,0.8-0.3,1.2-0.3c0.4,0,0.8,0.1,1.2,0.3c0.4,0.2,0.7,0.5,0.9,0.9c0.2,0.4,0.3,0.9,0.3,1.4
			c0,0.5-0.1,1-0.3,1.4s-0.5,0.7-0.9,0.9c-0.4,0.2-0.8,0.3-1.2,0.3C-21254.9-17116.9-21255.3-17117-21255.6-17117.2z
			 M-21253.7-17118.4c0.2-0.3,0.3-0.6,0.3-1.1c0-0.5-0.1-0.8-0.3-1.1c-0.2-0.3-0.4-0.4-0.7-0.4c-0.3,0-0.6,0.1-0.7,0.4
			c-0.2,0.3-0.3,0.6-0.3,1.1c0,0.5,0.1,0.8,0.3,1.1s0.4,0.4,0.7,0.4C-21254.1-17118-21253.9-17118.1-21253.7-17118.4z"/>
		<path class="st4" d="M-21250.6-17117.1c-0.3-0.1-0.6-0.3-0.9-0.5l0.6-0.9c0.2,0.2,0.5,0.3,0.7,0.4c0.2,0.1,0.4,0.1,0.6,0.1
			c0.2,0,0.4,0,0.5-0.1s0.2-0.2,0.2-0.4c0-0.1,0-0.2-0.1-0.3s-0.2-0.2-0.4-0.2c-0.2-0.1-0.3-0.1-0.5-0.2c-0.4-0.2-0.7-0.3-1-0.6
			c-0.3-0.2-0.4-0.5-0.4-0.9c0-0.5,0.2-0.8,0.5-1.1c0.3-0.3,0.8-0.4,1.3-0.4c0.6,0,1.2,0.2,1.7,0.6l-0.6,0.8
			c-0.4-0.3-0.7-0.4-1.1-0.4c-0.2,0-0.4,0-0.5,0.1s-0.2,0.2-0.2,0.3s0.1,0.2,0.2,0.3c0.1,0.1,0.3,0.2,0.5,0.2
			c0.2,0.1,0.3,0.1,0.3,0.1c0.4,0.2,0.8,0.3,1,0.6c0.2,0.2,0.4,0.5,0.4,0.9c0,0.3-0.1,0.6-0.2,0.8c-0.2,0.2-0.4,0.4-0.7,0.6
			c-0.3,0.1-0.7,0.2-1.1,0.2C-21250-17116.9-21250.3-17116.9-21250.6-17117.1z"/>
		<path class="st4" d="M-21246.2-17117.4c-0.3-0.3-0.4-0.8-0.4-1.4v-2.1h-0.7v-1l0.8-0.1l0.2-1.3h1.1v1.3h1.2v1.1h-1.2v2.1
			c0,0.5,0.2,0.8,0.7,0.8c0.1,0,0.3,0,0.5-0.1l0.2,1c-0.4,0.1-0.7,0.2-1.1,0.2C-21245.5-17116.9-21245.9-17117-21246.2-17117.4z"/>
		<path class="st4" d="M-21239.2-17119.1h-3.1c0.1,0.4,0.2,0.7,0.5,0.9c0.3,0.2,0.6,0.3,0.9,0.3c0.4,0,0.7-0.1,1.1-0.3l0.4,0.8
			c-0.2,0.2-0.5,0.3-0.8,0.4c-0.3,0.1-0.6,0.1-0.9,0.1c-0.5,0-0.9-0.1-1.3-0.3c-0.4-0.2-0.7-0.5-0.9-0.9s-0.3-0.9-0.3-1.4
			c0-0.5,0.1-1,0.3-1.4s0.5-0.7,0.9-0.9c0.4-0.2,0.7-0.3,1.1-0.3c0.7,0,1.2,0.2,1.5,0.7c0.4,0.4,0.5,1,0.5,1.7
			C-21239.1-17119.4-21239.1-17119.2-21239.2-17119.1z M-21240.3-17120c0-0.3-0.1-0.6-0.2-0.8s-0.4-0.3-0.7-0.3
			c-0.2,0-0.5,0.1-0.7,0.3c-0.2,0.2-0.3,0.4-0.4,0.8H-21240.3z"/>
		<path class="st4" d="M-21237.8-17117.6c-0.4-0.5-0.5-1.1-0.5-1.9c0-0.5,0.1-1,0.3-1.4c0.2-0.4,0.4-0.7,0.8-0.9
			c0.3-0.2,0.7-0.3,1-0.3c0.3,0,0.5,0,0.7,0.1c0.2,0.1,0.4,0.2,0.6,0.4l-0.1-0.8v-1.7h1.4v7h-1.1l-0.1-0.5h0
			c-0.2,0.2-0.4,0.3-0.6,0.5c-0.2,0.1-0.5,0.2-0.7,0.2C-21236.9-17116.9-21237.4-17117.1-21237.8-17117.6z M-21235.5-17118.1
			c0.1-0.1,0.3-0.2,0.4-0.4v-2.1c-0.3-0.2-0.5-0.3-0.9-0.3c-0.3,0-0.5,0.1-0.7,0.4s-0.3,0.6-0.3,1.1c0,0.5,0.1,0.9,0.3,1.1
			s0.4,0.4,0.7,0.4C-21235.8-17118-21235.6-17118-21235.5-17118.1z"/>
		<path class="st4" d="M-21230.6-17115.1l0.3-1.1c0.1,0,0.3,0.1,0.3,0.1c0.4,0,0.7-0.2,0.9-0.7l0.1-0.3l-1.9-4.8h1.4l0.8,2.2
			c0.1,0.2,0.2,0.5,0.3,0.9c0,0.2,0.1,0.3,0.1,0.5h0c0.1-0.4,0.2-0.8,0.3-1.4l0.7-2.2h1.3l-1.7,5.1c-0.2,0.6-0.5,1.1-0.8,1.4
			c-0.3,0.3-0.7,0.4-1.3,0.4C-21230.1-17115-21230.4-17115.1-21230.6-17115.1z"/>
		<path class="st4" d="M-21221.3-17119.1h-3.1c0.1,0.4,0.2,0.7,0.5,0.9c0.3,0.2,0.6,0.3,0.9,0.3c0.4,0,0.7-0.1,1.1-0.3l0.4,0.8
			c-0.2,0.2-0.5,0.3-0.8,0.4c-0.3,0.1-0.6,0.1-0.9,0.1c-0.5,0-0.9-0.1-1.3-0.3c-0.4-0.2-0.7-0.5-0.9-0.9s-0.3-0.9-0.3-1.4
			c0-0.5,0.1-1,0.3-1.4s0.5-0.7,0.9-0.9c0.4-0.2,0.7-0.3,1.1-0.3c0.7,0,1.2,0.2,1.6,0.7c0.4,0.4,0.5,1,0.5,1.7
			C-21221.2-17119.4-21221.2-17119.2-21221.3-17119.1z M-21222.4-17120c0-0.3-0.1-0.6-0.2-0.8c-0.1-0.2-0.4-0.3-0.7-0.3
			c-0.2,0-0.5,0.1-0.7,0.3c-0.2,0.2-0.3,0.4-0.4,0.8H-21222.4z"/>
		<path class="st4" d="M-21219.7-17117.1c-0.3-0.1-0.6-0.3-0.9-0.5l0.6-0.9c0.2,0.2,0.5,0.3,0.7,0.4c0.2,0.1,0.4,0.1,0.6,0.1
			c0.2,0,0.4,0,0.5-0.1s0.2-0.2,0.2-0.4c0-0.1,0-0.2-0.1-0.3s-0.2-0.2-0.4-0.2c-0.2-0.1-0.3-0.1-0.5-0.2c-0.4-0.2-0.7-0.3-1-0.6
			c-0.3-0.2-0.4-0.5-0.4-0.9c0-0.5,0.2-0.8,0.5-1.1c0.3-0.3,0.8-0.4,1.3-0.4c0.6,0,1.2,0.2,1.7,0.6l-0.6,0.8
			c-0.4-0.3-0.7-0.4-1.1-0.4c-0.2,0-0.4,0-0.5,0.1s-0.2,0.2-0.2,0.3s0.1,0.2,0.2,0.3c0.1,0.1,0.3,0.2,0.5,0.2
			c0.2,0.1,0.3,0.1,0.3,0.1c0.4,0.2,0.8,0.3,1,0.6c0.2,0.2,0.4,0.5,0.4,0.9c0,0.3-0.1,0.6-0.2,0.8c-0.2,0.2-0.4,0.4-0.7,0.6
			s-0.7,0.2-1.1,0.2C-21219.1-17116.9-21219.4-17116.9-21219.7-17117.1z"/>
		<path class="st4" d="M-21215.3-17117.4c-0.3-0.3-0.4-0.8-0.4-1.4v-2.1h-0.7v-1l0.8-0.1l0.2-1.3h1.1v1.3h1.2v1.1h-1.2v2.1
			c0,0.5,0.2,0.8,0.7,0.8c0.1,0,0.3,0,0.5-0.1l0.2,1c-0.4,0.1-0.7,0.2-1.1,0.2C-21214.6-17116.9-21215-17117-21215.3-17117.4z"/>
		<path class="st4" d="M-21208.3-17119.1h-3.1c0.1,0.4,0.2,0.7,0.5,0.9c0.3,0.2,0.6,0.3,0.9,0.3c0.4,0,0.7-0.1,1.1-0.3l0.4,0.8
			c-0.2,0.2-0.5,0.3-0.8,0.4c-0.3,0.1-0.6,0.1-0.9,0.1c-0.5,0-0.9-0.1-1.3-0.3c-0.4-0.2-0.7-0.5-0.9-0.9s-0.3-0.9-0.3-1.4
			c0-0.5,0.1-1,0.3-1.4s0.5-0.7,0.9-0.9c0.4-0.2,0.7-0.3,1.1-0.3c0.7,0,1.2,0.2,1.5,0.7c0.4,0.4,0.5,1,0.5,1.7
			C-21208.2-17119.4-21208.2-17119.2-21208.3-17119.1z M-21209.4-17120c0-0.3-0.1-0.6-0.2-0.8c-0.1-0.2-0.4-0.3-0.7-0.3
			c-0.2,0-0.5,0.1-0.7,0.3c-0.2,0.2-0.3,0.4-0.4,0.8H-21209.4z"/>
		<path class="st4" d="M-21207.2-17121.9h1.1l0.1,0.9h0c0.2-0.3,0.4-0.6,0.6-0.7c0.3-0.2,0.5-0.3,0.8-0.3c0.2,0,0.4,0,0.6,0.1
			l-0.2,1.2c0,0-0.1,0-0.2,0c-0.1,0-0.2,0-0.3,0c-0.2,0-0.4,0.1-0.6,0.2c-0.2,0.2-0.4,0.4-0.5,0.7v2.9h-1.4V-17121.9z"/>
		<path class="st4" d="M-21203.1-17117.6c-0.4-0.5-0.5-1.1-0.5-1.9c0-0.5,0.1-1,0.3-1.4c0.2-0.4,0.4-0.7,0.8-0.9
			c0.3-0.2,0.7-0.3,1-0.3c0.3,0,0.5,0,0.7,0.1c0.2,0.1,0.4,0.2,0.6,0.4l-0.1-0.8v-1.7h1.4v7h-1.1l-0.1-0.5h0
			c-0.2,0.2-0.4,0.3-0.6,0.5c-0.2,0.1-0.5,0.2-0.7,0.2C-21202.3-17116.9-21202.8-17117.1-21203.1-17117.6z M-21200.8-17118.1
			c0.1-0.1,0.3-0.2,0.4-0.4v-2.1c-0.3-0.2-0.5-0.3-0.9-0.3c-0.3,0-0.5,0.1-0.7,0.4s-0.3,0.6-0.3,1.1c0,0.5,0.1,0.9,0.3,1.1
			s0.4,0.4,0.7,0.4C-21201.1-17118-21201-17118-21200.8-17118.1z"/>
		<path class="st4" d="M-21197.5-17117.3c-0.3-0.3-0.4-0.6-0.4-1.1c0-0.5,0.2-0.9,0.7-1.2c0.4-0.3,1.2-0.5,2.2-0.6
			c0-0.5-0.3-0.8-0.8-0.8c-0.2,0-0.4,0-0.6,0.1c-0.2,0.1-0.4,0.2-0.7,0.3l-0.5-0.9c0.7-0.4,1.4-0.7,2.1-0.7c0.6,0,1.1,0.2,1.4,0.6
			c0.3,0.4,0.5,0.9,0.5,1.7v2.9h-1.1l-0.1-0.5h0c-0.5,0.4-1,0.6-1.5,0.6C-21196.9-17116.9-21197.3-17117-21197.5-17117.3z
			 M-21195.6-17118.1c0.1-0.1,0.3-0.2,0.4-0.3v-0.9c-0.5,0.1-0.9,0.2-1.2,0.3c-0.2,0.1-0.4,0.3-0.4,0.6c0,0.2,0.1,0.3,0.2,0.4
			c0.1,0.1,0.3,0.1,0.5,0.1C-21195.8-17117.9-21195.7-17118-21195.6-17118.1z"/>
		<path class="st4" d="M-21192.7-17115.1l0.3-1.1c0.1,0,0.3,0.1,0.3,0.1c0.4,0,0.7-0.2,0.9-0.7l0.1-0.3l-1.9-4.8h1.4l0.8,2.2
			c0.1,0.2,0.2,0.5,0.3,0.9c0,0.2,0.1,0.3,0.1,0.5h0c0.1-0.4,0.2-0.8,0.3-1.4l0.7-2.2h1.3l-1.7,5.1c-0.2,0.6-0.5,1.1-0.8,1.4
			c-0.3,0.3-0.7,0.4-1.3,0.4C-21192.2-17115-21192.4-17115.1-21192.7-17115.1z"/>
	</g>
	<g id="Group_404" transform="translate(-21286 -17128)">
		<g id="Group_403">
			<g id="Path_451">
				<path class="st6" d="M7.5,0C11.6,0,15,3.4,15,7.5S11.6,15,7.5,15S0,11.6,0,7.5S3.4,0,7.5,0z"/>
			</g>
		</g>
		<g id="Path_452">
			<path class="st2" d="M7.5,15C3.4,15,0,11.6,0,7.5S3.4,0,7.5,0S15,3.4,15,7.5S11.6,15,7.5,15z M7.5,0.7c-3.7,0-6.8,3-6.8,6.8
				s3,6.8,6.8,6.8s6.8-3,6.8-6.8S11.2,0.7,7.5,0.7L7.5,0.7z"/>
		</g>
	</g>
</g>
</svg>
