<svg id="Layer_1" data-name="Layer 1" xmlns="http://www.w3.org/2000/svg" viewBox="0 0 318 34"><defs><style>.cls-1{fill:#fff;}.cls-2{fill:#37c5ab;}.cls-3{fill:#2d2d61;}.cls-4{isolation:isolate;}.cls-5{fill:#26262c;}.cls-6{fill:#ea4e9d;}.cls-7{fill:#2282ff;}</style></defs><title>arbic-reader</title><g id="arbic"><g id="Rectangle_149" data-name="Rectangle 149"><rect class="cls-1" width="318" height="34" rx="5"/></g><g id="Group_417" data-name="Group 417"><g id="Group_407" data-name="Group 407"><g id="Group_405" data-name="Group 405"><g id="Path_453" data-name="Path 453"><path class="cls-2" d="M22.5,10A7.5,7.5,0,1,1,15,17.5,7.5,7.5,0,0,1,22.5,10Z"/></g><g id="Path_454" data-name="Path 454"><path class="cls-3" d="M22.5,25A7.5,7.5,0,1,1,30,17.5,7.5,7.5,0,0,1,22.5,25Zm0-14.29a6.79,6.79,0,1,0,6.79,6.79,6.79,6.79,0,0,0-6.79-6.79Z"/></g></g><g id="نُشر_من_قبل" data-name="نُشر من قبل" class="cls-4"><g class="cls-4"><path class="cls-5" d="M43.78,21.59a3,3,0,0,1-1.07,2,3.77,3.77,0,0,1-2.33.65A4.32,4.32,0,0,1,38.94,24a2.33,2.33,0,0,1-1-.66,2.74,2.74,0,0,1-.55-1.09,6,6,0,0,1-.17-1.49c0-.29,0-.59,0-.91a11.3,11.3,0,0,1,.18-1.14h1.33c0,.26-.08.48-.1.67s-.05.37-.07.52,0,.28,0,.4v.33a3.3,3.3,0,0,0,.08.82A1.23,1.23,0,0,0,39,22a1.34,1.34,0,0,0,.57.34,3.3,3.3,0,0,0,.92.11,3.26,3.26,0,0,0,1.06-.15,1.46,1.46,0,0,0,.68-.47,1.89,1.89,0,0,0,.36-.81,5.22,5.22,0,0,0,.11-1.2V12.38H44v6.75c0,.22,0,.41,0,.58a.94.94,0,0,0,.13.4.57.57,0,0,0,.32.24,1.72,1.72,0,0,0,.62.08v1.73h-.27a1.26,1.26,0,0,1-.6-.13,1,1,0,0,1-.42-.44Z"/><path class="cls-5" d="M46,22.16h-.84a.35.35,0,0,1-.33-.23,1.44,1.44,0,0,1-.11-.64,1.42,1.42,0,0,1,.11-.63.35.35,0,0,1,.33-.23H46l.46,0a.64.64,0,0,0,.32-.11.43.43,0,0,0,.17-.25,1.42,1.42,0,0,0,.05-.46v-3h1.36v2.58a4.88,4.88,0,0,0,0,.57.79.79,0,0,0,.12.4.66.66,0,0,0,.32.24,2,2,0,0,0,.62.07v1.73h-.29a2.3,2.3,0,0,1-1-.18,1.09,1.09,0,0,1-.57-.55h0a1.4,1.4,0,0,1-.37.36,2.12,2.12,0,0,1-.42.22,1.93,1.93,0,0,1-.44.12Zm2.37,2.2h-1.5V23h1.5Z"/><path class="cls-5" d="M51.25,20.43a2.75,2.75,0,0,1-.74-.83,2.11,2.11,0,0,1-.27-1.05,3.14,3.14,0,0,1,.08-.67,3.71,3.71,0,0,1,.24-.66,3.21,3.21,0,0,1,.36-.59,2.69,2.69,0,0,1,.46-.49,2,2,0,0,1,.53-.33,1.71,1.71,0,0,1,.59-.11,1.4,1.4,0,0,1,.66.16,2.13,2.13,0,0,1,.58.43,3.15,3.15,0,0,1,.48.64,4.64,4.64,0,0,1,.36.78,5.2,5.2,0,0,1,.23.86,5.31,5.31,0,0,1,.08.87,2.68,2.68,0,0,1-.19,1.08,2,2,0,0,1-.51.75,2.53,2.53,0,0,1-.75.48,5.72,5.72,0,0,1-.91.27,6.39,6.39,0,0,1-1,.11l-1,0H49.46a.35.35,0,0,1-.33-.23,1.44,1.44,0,0,1-.11-.64,1.42,1.42,0,0,1,.11-.63.35.35,0,0,1,.33-.23h.93l.34,0,.31,0h.19Zm.79-6H50.55V13H52Zm.38,3.08a.51.51,0,0,0-.32.12,1,1,0,0,0-.26.28,1.7,1.7,0,0,0-.19.35,1.16,1.16,0,0,0-.06.34.74.74,0,0,0,.06.27,1.1,1.1,0,0,0,.24.35,3.2,3.2,0,0,0,.52.43,7.27,7.27,0,0,0,.89.5.58.58,0,0,0,.11-.15,1.59,1.59,0,0,0,.07-.2,1.18,1.18,0,0,0,0-.2,1.21,1.21,0,0,0,0-.18,2.22,2.22,0,0,0-.09-.57,3.45,3.45,0,0,0-.25-.63,2.11,2.11,0,0,0-.35-.5A.61.61,0,0,0,52.42,17.46Zm1.79-3.08H52.72V13h1.49Z"/><path class="cls-5" d="M66.9,18.55c0,.28.09.53.12.73s0,.41.07.6a.7.7,0,0,0,.06.19.42.42,0,0,0,.17.18,1.1,1.1,0,0,0,.34.13,2.35,2.35,0,0,0,.58.05v1.73H68l-.31,0a1,1,0,0,1-.23-.07l-.19-.1-.15-.13,0,0a5.85,5.85,0,0,1-.31,1.49,2.94,2.94,0,0,1-.66,1.08,2.71,2.71,0,0,1-1.08.67,4.71,4.71,0,0,1-1.54.23,4.12,4.12,0,0,1-1.45-.23,2.25,2.25,0,0,1-1-.66,2.76,2.76,0,0,1-.55-1.08,6.07,6.07,0,0,1-.17-1.5c0-.14,0-.29,0-.45a4.23,4.23,0,0,1,0-.48c0-.17,0-.35.07-.55s.07-.4.11-.62h1.33c0,.26-.08.49-.1.69s-.05.38-.07.53,0,.29,0,.41,0,.24,0,.35a3.93,3.93,0,0,0,.08.82,1.4,1.4,0,0,0,.3.58,1.36,1.36,0,0,0,.56.34,3.33,3.33,0,0,0,.91.11,3.24,3.24,0,0,0,1.07-.15,1.49,1.49,0,0,0,.67-.47,2,2,0,0,0,.35-.81,6.91,6.91,0,0,0,.1-1.2c0-.14,0-.29,0-.45s0-.33,0-.52,0-.4-.08-.64-.08-.5-.14-.8Zm-2.33-1.08H63.08V16.13h1.49Z"/><path class="cls-5" d="M72.41,22.16a2.76,2.76,0,0,1-.65-.07,2.32,2.32,0,0,1-.58-.19,4.25,4.25,0,0,1-.52-.27,4,4,0,0,1-.44-.35,2,2,0,0,1-.87.68,2.86,2.86,0,0,1-1.06.2h-.05a.36.36,0,0,1-.33-.23,1.6,1.6,0,0,1-.11-.64,1.58,1.58,0,0,1,.11-.63.36.36,0,0,1,.33-.23h.09a1.4,1.4,0,0,0,.66-.14,1.45,1.45,0,0,0,.44-.37,2,2,0,0,0,.3-.49c.07-.18.15-.36.23-.53a6.8,6.8,0,0,1,.38-.71,2.88,2.88,0,0,1,.48-.6,2.26,2.26,0,0,1,.63-.4,2.1,2.1,0,0,1,.82-.15,2.22,2.22,0,0,1,1.09.26,2.32,2.32,0,0,1,.77.65,2.77,2.77,0,0,1,.47.9,3.09,3.09,0,0,1,.16,1,2.6,2.6,0,0,1-.17.93,2.12,2.12,0,0,1-.47.74,2,2,0,0,1-.74.48A2.5,2.5,0,0,1,72.41,22.16Zm-.18-3.42a1,1,0,0,0-.46.1,1.15,1.15,0,0,0-.37.25,2.24,2.24,0,0,0-.29.38c-.08.15-.16.32-.23.49a1.94,1.94,0,0,0,.29.21l.34.14a2.38,2.38,0,0,0,.42.09,3.84,3.84,0,0,0,.5,0h.36a1.41,1.41,0,0,0,.31-.07.71.71,0,0,0,.22-.15.42.42,0,0,0,.08-.26,1.16,1.16,0,0,0-.06-.32,1.33,1.33,0,0,0-.19-.4,1.15,1.15,0,0,0-.36-.33A1,1,0,0,0,72.23,18.74Z"/><path class="cls-5" d="M79.44,23.34l.73.18a2.65,2.65,0,0,0,.54.05,1.74,1.74,0,0,0,.84-.18,1.47,1.47,0,0,0,.51-.48,2.13,2.13,0,0,0,.25-.71,5.53,5.53,0,0,0,.06-.84,8.08,8.08,0,0,0-.05-.85c0-.28-.1-.57-.17-.88s-.17-.62-.29-1-.24-.71-.38-1.11H83a11.53,11.53,0,0,1,.38,1.13,9.36,9.36,0,0,1,.26,1.14.92.92,0,0,0,.09.23.46.46,0,0,0,.2.19,1,1,0,0,0,.36.13,2.44,2.44,0,0,0,.59.05v1.73H84.7a1.45,1.45,0,0,1-.32,0,.84.84,0,0,1-.24-.07A.54.54,0,0,1,84,22a.75.75,0,0,1-.16-.15h0a5.17,5.17,0,0,1-.3,1.59,3.19,3.19,0,0,1-.67,1.09,2.5,2.5,0,0,1-.94.64,3,3,0,0,1-1.1.21,3.26,3.26,0,0,1-.62-.06,4.41,4.41,0,0,1-.7-.21Z"/><path class="cls-5" d="M87.35,21.44a1.76,1.76,0,0,1-.39.34,2.06,2.06,0,0,1-.44.23,2.46,2.46,0,0,1-.45.11,2.15,2.15,0,0,1-.43,0h-.78a.35.35,0,0,1-.33-.23,1.6,1.6,0,0,1-.11-.64,1.58,1.58,0,0,1,.11-.63.35.35,0,0,1,.33-.23h.85l.34,0a1,1,0,0,0,.35-.12.91.91,0,0,0,.27-.25.88.88,0,0,0,.1-.45v-1.8h1.35v1.38c0,.21,0,.4,0,.56a.86.86,0,0,0,.11.39.53.53,0,0,0,.27.24,1.39,1.39,0,0,0,.51.07l.37,0a.64.64,0,0,0,.31-.11.51.51,0,0,0,.23-.25,1.12,1.12,0,0,0,.08-.46v-1.8h1.36v1.36c0,.22,0,.41,0,.57a1.06,1.06,0,0,0,.11.4.61.61,0,0,0,.3.24,1.66,1.66,0,0,0,.56.07,2.06,2.06,0,0,0,.36,0,.6.6,0,0,0,.3-.1.59.59,0,0,0,.19-.26,1.14,1.14,0,0,0,.07-.46v-3h1.35v3.1a3.31,3.31,0,0,1-.19,1.23,2,2,0,0,1-.51.76,1.67,1.67,0,0,1-.73.39,3.41,3.41,0,0,1-.85.11,2.63,2.63,0,0,1-.49,0A2.21,2.21,0,0,1,91.4,22a1.56,1.56,0,0,1-.4-.22,1.35,1.35,0,0,1-.32-.35h0a1.56,1.56,0,0,1-.39.34,2,2,0,0,1-.43.23,2.46,2.46,0,0,1-.45.11,2.12,2.12,0,0,1-.42,0A2.46,2.46,0,0,1,88,22a1.34,1.34,0,0,1-.63-.55Zm3-5.06H88.88V15h1.49Zm1.09-1.77H90V13.27h1.49Zm1.09,1.77H91.06V15h1.49Z"/><path class="cls-5" d="M97.59,11.83c-.13-.1-.25-.18-.34-.26L97,11.36l-.13,0h-.33a6,6,0,0,1-.76,0c-.23,0-.47-.09-.73-.16l.14-.65a5.18,5.18,0,0,0,.67.15,3.26,3.26,0,0,0,.62.06,1.29,1.29,0,0,1-.21-.4,1.07,1.07,0,0,1-.07-.39.93.93,0,0,1,.1-.45,1.13,1.13,0,0,1,.28-.34A1,1,0,0,1,97,9a1.31,1.31,0,0,1,.44-.07,1.54,1.54,0,0,1,.43.06,1.17,1.17,0,0,1,.36.21.85.85,0,0,1,.26.33,1.06,1.06,0,0,1,.1.48,1.08,1.08,0,0,1-.2.68,1.5,1.5,0,0,1-.58.46l.06.07a1.78,1.78,0,0,0,.18.13Zm.2-1.84a.39.39,0,0,0-.12-.32.39.39,0,0,0-.26-.1.45.45,0,0,0-.29.1A.38.38,0,0,0,97,10a.65.65,0,0,0,.09.32,1.12,1.12,0,0,0,.22.33,1,1,0,0,0,.36-.24A.56.56,0,0,0,97.79,10Z"/><path class="cls-5" d="M96.55,22.16h-.83a.37.37,0,0,1-.34-.23,1.6,1.6,0,0,1-.11-.64,1.58,1.58,0,0,1,.11-.63.37.37,0,0,1,.34-.23h.9a2.89,2.89,0,0,0,.44,0,.64.64,0,0,0,.32-.1.48.48,0,0,0,.18-.25,1.45,1.45,0,0,0,.06-.47v-3H99v3.06a3.28,3.28,0,0,1-.2,1.27,1.92,1.92,0,0,1-.53.77,1.8,1.8,0,0,1-.77.38A3.93,3.93,0,0,1,96.55,22.16Zm2.5-6.86H97.56V14h1.49Z"/></g></g></g><g id="Group_408" data-name="Group 408"><g id="نُشِر_اليوم_" data-name="نُشِر اليوم " class="cls-4"><g class="cls-4"><path class="cls-5" d="M259.23,16.88a1.64,1.64,0,0,1,.67.14,2.11,2.11,0,0,1,.58.39A3.32,3.32,0,0,1,261,18a4.22,4.22,0,0,1,.34.67,4,4,0,0,1,.22.72,3.37,3.37,0,0,1,.07.69,2.35,2.35,0,0,1-.14.86,2,2,0,0,1-.41.66,1.76,1.76,0,0,1-.64.43,2.13,2.13,0,0,1-.81.16,3.38,3.38,0,0,1-.63-.07l-.62-.14-.59-.14a2,2,0,0,0-.53-.07,1,1,0,0,0-.39.07.53.53,0,0,0-.24.2.83.83,0,0,0-.11.29,2.25,2.25,0,0,0,0,.38c0,.12,0,.27,0,.45s0,.37.08.59.08.46.14.72.13.53.22.81h-1.42q-.19-.81-.3-1.44a6.93,6.93,0,0,1-.1-1.13,3.74,3.74,0,0,1,.11-.92,2.51,2.51,0,0,1,.33-.72,1.91,1.91,0,0,1,.5-.52,2.18,2.18,0,0,1,.66-.29A11.11,11.11,0,0,1,257,19a5.64,5.64,0,0,1,.45-.89,3.71,3.71,0,0,1,.48-.62,2.83,2.83,0,0,1,.48-.37,1.42,1.42,0,0,1,.43-.19A1.22,1.22,0,0,1,259.23,16.88Zm.34,3.63.24,0a.81.81,0,0,0,.22-.07.36.36,0,0,0,.15-.15.43.43,0,0,0,.06-.24,1.41,1.41,0,0,0-.08-.4,2.1,2.1,0,0,0-.23-.48,1.35,1.35,0,0,0-.35-.4.67.67,0,0,0-.46-.17.67.67,0,0,0-.41.13,1.34,1.34,0,0,0-.33.34,2.91,2.91,0,0,0-.27.53c-.08.2-.16.42-.23.65l.42.08a3.15,3.15,0,0,0,.42.09l.42.08A3,3,0,0,0,259.57,20.51Z"/><path class="cls-5" d="M262.41,23.1c.23.09.45.17.65.23s.39.1.57.14a3.17,3.17,0,0,0,.51.08,3.77,3.77,0,0,0,.47,0,2.39,2.39,0,0,0,.75-.1,1.53,1.53,0,0,0,.51-.26,1.31,1.31,0,0,0,.33-.38,2.47,2.47,0,0,0,.17-.42,1.3,1.3,0,0,0,0-.13l0-.15h-.57a2.87,2.87,0,0,1-1.93-.58,2.1,2.1,0,0,1-.67-1.68,3.42,3.42,0,0,1,.17-1,3.79,3.79,0,0,1,.47-.92,2.47,2.47,0,0,1,.7-.67,1.5,1.5,0,0,1,.83-.26,1.52,1.52,0,0,1,.9.28,3,3,0,0,1,.76.88,4,4,0,0,1,.46,1,6.75,6.75,0,0,1,.25,1.25h1.12v1.73h-1.14a4.85,4.85,0,0,1-.32,1.26,3.3,3.3,0,0,1-.62,1,2.79,2.79,0,0,1-.95.66,3.11,3.11,0,0,1-1.26.24,4.58,4.58,0,0,1-.53,0,4.89,4.89,0,0,1-.53-.09l-.56-.15c-.19-.06-.39-.13-.6-.22ZM266.33,20a3.38,3.38,0,0,0-.18-.44,2.36,2.36,0,0,0-.22-.39,1.18,1.18,0,0,0-.26-.28.48.48,0,0,0-.29-.1.47.47,0,0,0-.31.11,1.28,1.28,0,0,0-.26.26,2.59,2.59,0,0,0-.17.33,1,1,0,0,0-.06.31.55.55,0,0,0,.3.56,2.23,2.23,0,0,0,.89.14h.67c0-.08,0-.16-.05-.25Z"/><path class="cls-5" d="M269.76,22.16h-.84a.35.35,0,0,1-.33-.23,1.44,1.44,0,0,1-.11-.64,1.42,1.42,0,0,1,.11-.63.35.35,0,0,1,.33-.23h.9l.47,0a.61.61,0,0,0,.31-.11.39.39,0,0,0,.17-.25,1.38,1.38,0,0,0,.06-.46v-3h1.35v2.58a4.88,4.88,0,0,0,0,.57.79.79,0,0,0,.12.4.66.66,0,0,0,.32.24,2.07,2.07,0,0,0,.62.07v1.73H273A2.22,2.22,0,0,1,272,22a1.08,1.08,0,0,1-.58-.55h0a1.4,1.4,0,0,1-.37.36,1.68,1.68,0,0,1-.42.22,1.8,1.8,0,0,1-.44.12Zm.92,2.2h-1.49V23h1.49Zm2.17,0h-1.49V23h1.49Z"/><path class="cls-5" d="M274,22.16h-.78a.36.36,0,0,1-.33-.23,1.6,1.6,0,0,1-.11-.64,1.58,1.58,0,0,1,.11-.63.36.36,0,0,1,.33-.23h.84a3.32,3.32,0,0,0,.46,0,.68.68,0,0,0,.33-.1.53.53,0,0,0,.21-.25,1.41,1.41,0,0,0,.07-.47V12.38h1.35v7.25a3.27,3.27,0,0,1-.21,1.27A1.87,1.87,0,0,1,275,22.05,4,4,0,0,1,274,22.16Z"/><path class="cls-5" d="M278.42,22V12.38h1.36V22Z"/><path class="cls-5" d="M284.45,23.34l.73.18a2.71,2.71,0,0,0,.54.05,1.69,1.69,0,0,0,.84-.18,1.31,1.31,0,0,0,.51-.48,1.93,1.93,0,0,0,.25-.71,4.46,4.46,0,0,0,.07-.84,6.07,6.07,0,0,0-.06-.85c0-.28-.1-.57-.17-.88s-.17-.62-.28-1-.24-.71-.39-1.11H288c.13.32.25.65.35,1s.18.67.25,1,.12.66.15,1,.05.63.05.93a5.63,5.63,0,0,1-.24,1.74,3.61,3.61,0,0,1-.66,1.2,2.54,2.54,0,0,1-1,.7,3,3,0,0,1-1.15.23,3.15,3.15,0,0,1-.61-.06,4.2,4.2,0,0,1-.71-.21Z"/><path class="cls-5" d="M289.69,22.82h3.4v.73h-3.4Z"/><path class="cls-5" d="M292.36,21.44a1.41,1.41,0,0,1-.39.34,2,2,0,0,1-.43.23,2.78,2.78,0,0,1-.46.11,2.12,2.12,0,0,1-.42,0h-.78a.37.37,0,0,1-.34-.23,1.6,1.6,0,0,1-.11-.64,1.58,1.58,0,0,1,.11-.63.37.37,0,0,1,.34-.23h.84l.35,0a1,1,0,0,0,.34-.12.72.72,0,0,0,.27-.25.88.88,0,0,0,.11-.45v-1.8h1.34v1.38c0,.21,0,.4,0,.56a.86.86,0,0,0,.11.39.58.58,0,0,0,.27.24,1.45,1.45,0,0,0,.52.07l.36,0a.68.68,0,0,0,.32-.11.55.55,0,0,0,.22-.25,1,1,0,0,0,.09-.46v-1.8h1.35v1.36a4.88,4.88,0,0,0,0,.57.9.9,0,0,0,.11.4.58.58,0,0,0,.29.24,1.66,1.66,0,0,0,.56.07,2.17,2.17,0,0,0,.37,0,.56.56,0,0,0,.29-.1.52.52,0,0,0,.19-.26,1.14,1.14,0,0,0,.07-.46v-3h1.35v3.1a3.31,3.31,0,0,1-.19,1.23,1.84,1.84,0,0,1-.5.76,1.79,1.79,0,0,1-.73.39,3.49,3.49,0,0,1-.86.11,2.63,2.63,0,0,1-.49,0,2.37,2.37,0,0,1-.46-.11,1.75,1.75,0,0,1-.4-.22,1.32,1.32,0,0,1-.31-.35h0a1.52,1.52,0,0,1-.38.34,2.32,2.32,0,0,1-.44.23,2.46,2.46,0,0,1-.45.11,2.12,2.12,0,0,1-.42,0,2.46,2.46,0,0,1-1-.17,1.34,1.34,0,0,1-.63-.55Zm3-5.06h-1.49V15h1.49Zm1.1-1.77H295V13.27h1.49Zm1.08,1.77h-1.49V15h1.49Z"/><path class="cls-5" d="M302.6,11.83l-.34-.26a1.69,1.69,0,0,1-.23-.21l-.14,0h-.32a5.92,5.92,0,0,1-.76,0c-.23,0-.48-.09-.74-.16l.14-.65a5.57,5.57,0,0,0,.67.15,3.34,3.34,0,0,0,.62.06,1.54,1.54,0,0,1-.21-.4,1.07,1.07,0,0,1-.07-.39.93.93,0,0,1,.1-.45,1.3,1.3,0,0,1,.28-.34A1,1,0,0,1,302,9a1.41,1.41,0,0,1,.45-.07,1.52,1.52,0,0,1,.42.06,1.23,1.23,0,0,1,.37.21,1,1,0,0,1,.26.33,1.21,1.21,0,0,1,.1.48,1.08,1.08,0,0,1-.21.68,1.43,1.43,0,0,1-.58.46l.06.07.18.13Zm.21-1.84a.39.39,0,0,0-.12-.32.41.41,0,0,0-.27-.1.42.42,0,0,0-.28.1.35.35,0,0,0-.13.3.63.63,0,0,0,.08.32,1.36,1.36,0,0,0,.22.33,1,1,0,0,0,.36-.24A.56.56,0,0,0,302.81,10Z"/><path class="cls-5" d="M301.57,22.16h-.84a.35.35,0,0,1-.33-.23,1.44,1.44,0,0,1-.11-.64,1.42,1.42,0,0,1,.11-.63.35.35,0,0,1,.33-.23h.9a3.1,3.1,0,0,0,.45,0,.6.6,0,0,0,.31-.1.48.48,0,0,0,.18-.25,1.45,1.45,0,0,0,.06-.47v-3H304v3.06a3.48,3.48,0,0,1-.2,1.27,2,2,0,0,1-.54.77,1.8,1.8,0,0,1-.77.38A3.91,3.91,0,0,1,301.57,22.16Zm2.49-6.86h-1.49V14h1.49Z"/></g></g><g id="Group_402" data-name="Group 402"><g id="Path_463" data-name="Path 463"><path class="cls-6" d="M239.5,10a7.5,7.5,0,1,1-7.5,7.5A7.5,7.5,0,0,1,239.5,10Z"/></g><g id="Path_464" data-name="Path 464"><path class="cls-3" d="M239.5,25a7.5,7.5,0,1,1,7.5-7.5A7.5,7.5,0,0,1,239.5,25Zm0-14.29a6.79,6.79,0,1,0,6.79,6.79,6.79,6.79,0,0,0-6.79-6.79Z"/></g></g></g><g id="Group_406" data-name="Group 406"><g id="نشر_أمس_" data-name="نشر أمس " class="cls-4"><g class="cls-4"><path class="cls-5" d="M157.35,21.82a4,4,0,0,1-1,2.63,3.43,3.43,0,0,1-2.55.88,4.3,4.3,0,0,1-1.48-.23,2.47,2.47,0,0,1-1-.66,2.67,2.67,0,0,1-.56-1.07,6,6,0,0,1-.17-1.48c0-.16,0-.31,0-.46s0-.31,0-.48,0-.36.07-.55.07-.41.12-.64h1.33c-.05.26-.08.49-.11.69s-.05.38-.06.53a3.29,3.29,0,0,0,0,.41c0,.12,0,.24,0,.35a3.35,3.35,0,0,0,.08.82,1.27,1.27,0,0,0,.29.58,1.34,1.34,0,0,0,.57.34,3.93,3.93,0,0,0,2,0,1.52,1.52,0,0,0,.68-.47,1.87,1.87,0,0,0,.37-.79,5.47,5.47,0,0,0,.11-1.15c0-.18,0-.37,0-.56s0-.39-.05-.63-.06-.49-.1-.79-.07-.64-.13-1h1.36c.05.41.09.76.13,1.06s.07.56.1.81a.71.71,0,0,0,.08.28.52.52,0,0,0,.19.17.89.89,0,0,0,.31.07,2.82,2.82,0,0,0,.43,0l.34,0a.64.64,0,0,0,.3-.11.53.53,0,0,0,.21-.25,1.15,1.15,0,0,0,.08-.46v-1.8h1.35v1.36c0,.22,0,.41,0,.57a.9.9,0,0,0,.11.4.58.58,0,0,0,.29.24,1.66,1.66,0,0,0,.56.07,2.17,2.17,0,0,0,.37,0,.56.56,0,0,0,.29-.1.52.52,0,0,0,.19-.26,1.14,1.14,0,0,0,.07-.46v-3h1.36v2.54c0,.23,0,.42,0,.59a1,1,0,0,0,.13.41.73.73,0,0,0,.32.24,2,2,0,0,0,.62.08v1.73h-.29a2.28,2.28,0,0,1-.88-.15,1.18,1.18,0,0,1-.58-.51,1.59,1.59,0,0,1-.36.33,2.14,2.14,0,0,1-.4.2,2.07,2.07,0,0,1-.43.1l-.43,0a4,4,0,0,1-.49,0,1.91,1.91,0,0,1-.47-.12,1.58,1.58,0,0,1-.39-.24,1.12,1.12,0,0,1-.31-.37h0a1.43,1.43,0,0,1-.28.32,2.25,2.25,0,0,1-.36.24,2.86,2.86,0,0,1-.41.15,2,2,0,0,1-.42.05,2.2,2.2,0,0,1-.58-.07,1.1,1.1,0,0,1-.49-.28Z"/><path class="cls-5" d="M169.17,22.16a2.76,2.76,0,0,1-.65-.07,2.32,2.32,0,0,1-.58-.19,3.63,3.63,0,0,1-.52-.27,3.22,3.22,0,0,1-.44-.35,2.08,2.08,0,0,1-.87.68,2.86,2.86,0,0,1-1.06.2H165a.35.35,0,0,1-.33-.23,1.44,1.44,0,0,1-.11-.64,1.42,1.42,0,0,1,.11-.63.35.35,0,0,1,.33-.23h.09a1.4,1.4,0,0,0,.66-.14,1.58,1.58,0,0,0,.44-.37,1.72,1.72,0,0,0,.29-.49l.24-.53a6.8,6.8,0,0,1,.38-.71,2.88,2.88,0,0,1,.48-.6,2.26,2.26,0,0,1,.63-.4A2.07,2.07,0,0,1,169,17a2.21,2.21,0,0,1,1.08.26,2.47,2.47,0,0,1,.78.65,3,3,0,0,1,.47.9,3.38,3.38,0,0,1,.15,1,2.6,2.6,0,0,1-.16.93,2.28,2.28,0,0,1-.47.74,2,2,0,0,1-.74.48A2.5,2.5,0,0,1,169.17,22.16ZM169,18.74a1,1,0,0,0-.47.1,1.23,1.23,0,0,0-.36.25,2.24,2.24,0,0,0-.29.38c-.08.15-.16.32-.23.49a1.94,1.94,0,0,0,.29.21l.34.14a2.26,2.26,0,0,0,.41.09,3.89,3.89,0,0,0,.51,0h.35a1.29,1.29,0,0,0,.31-.07.53.53,0,0,0,.22-.15.37.37,0,0,0,.09-.26,1.39,1.39,0,0,0-.26-.72,1.15,1.15,0,0,0-.36-.33A1,1,0,0,0,169,18.74Z"/><path class="cls-5" d="M175,10l-.27-.05-.21,0a.81.81,0,0,0-.39.1.38.38,0,0,0-.15.34.45.45,0,0,0,.17.37.92.92,0,0,0,.51.12h.64v.72h-2.4v-.69h.51v0a1.66,1.66,0,0,1-.2-.32,1,1,0,0,1-.06-.33,1,1,0,0,1,.09-.42,1.18,1.18,0,0,1,.27-.32,1.2,1.2,0,0,1,.42-.22,1.86,1.86,0,0,1,.54-.07,3.61,3.61,0,0,1,.52,0Zm-1.58,12V12.38h1.36V22Z"/><path class="cls-5" d="M179.45,23.34l.73.18a2.71,2.71,0,0,0,.54.05,1.69,1.69,0,0,0,.84-.18,1.31,1.31,0,0,0,.51-.48,1.93,1.93,0,0,0,.25-.71,4.46,4.46,0,0,0,.07-.84,6.07,6.07,0,0,0-.06-.85,8,8,0,0,0-.17-.88c-.08-.3-.17-.62-.28-1s-.24-.71-.39-1.11H183a9.38,9.38,0,0,1,.38,1.13q.16.57.27,1.14a.9.9,0,0,0,.08.23.46.46,0,0,0,.2.19,1,1,0,0,0,.37.13,2.39,2.39,0,0,0,.59.05v1.73h-.17a1.51,1.51,0,0,1-.32,0,.69.69,0,0,1-.23-.07A.5.5,0,0,1,184,22a1.06,1.06,0,0,1-.15-.15h0a5.17,5.17,0,0,1-.3,1.59,3.34,3.34,0,0,1-.66,1.09,2.67,2.67,0,0,1-.94.64,3,3,0,0,1-1.11.21,3.15,3.15,0,0,1-.61-.06,4.2,4.2,0,0,1-.71-.21Z"/><path class="cls-5" d="M187.36,21.44a1.41,1.41,0,0,1-.39.34,2,2,0,0,1-.43.23,2.37,2.37,0,0,1-.46.11,2.12,2.12,0,0,1-.42,0h-.78a.37.37,0,0,1-.34-.23,1.6,1.6,0,0,1-.11-.64,1.58,1.58,0,0,1,.11-.63.37.37,0,0,1,.34-.23h.84l.35,0a1,1,0,0,0,.34-.12.72.72,0,0,0,.27-.25.88.88,0,0,0,.11-.45v-1.8h1.34v1.38c0,.21,0,.4,0,.56a.86.86,0,0,0,.11.39.58.58,0,0,0,.27.24,1.45,1.45,0,0,0,.52.07l.36,0a.68.68,0,0,0,.32-.11.55.55,0,0,0,.22-.25,1,1,0,0,0,.09-.46v-1.8h1.35v1.36a4.88,4.88,0,0,0,0,.57.9.9,0,0,0,.11.4.58.58,0,0,0,.29.24,1.66,1.66,0,0,0,.56.07,2.17,2.17,0,0,0,.37,0,.56.56,0,0,0,.29-.1.52.52,0,0,0,.19-.26,1.14,1.14,0,0,0,.07-.46v-3h1.35v2.54c0,.23,0,.42,0,.59a1,1,0,0,0,.13.41.73.73,0,0,0,.32.24,2,2,0,0,0,.62.08v1.73h-.29a2.28,2.28,0,0,1-.88-.15,1.18,1.18,0,0,1-.58-.51,1.59,1.59,0,0,1-.36.33,2.14,2.14,0,0,1-.4.2,2.23,2.23,0,0,1-.43.1l-.43,0a2.63,2.63,0,0,1-.49,0,2.37,2.37,0,0,1-.46-.11,1.75,1.75,0,0,1-.4-.22,1.32,1.32,0,0,1-.31-.35h0a1.52,1.52,0,0,1-.38.34,2.06,2.06,0,0,1-.44.23,2.46,2.46,0,0,1-.45.11,2.12,2.12,0,0,1-.42,0,2.46,2.46,0,0,1-1-.17,1.34,1.34,0,0,1-.63-.55Zm3-5.06h-1.5V15h1.5Zm1.09-1.77H190V13.27h1.49Zm1.08,1.77h-1.49V15h1.49Z"/><path class="cls-5" d="M196.57,22.16h-.84a.35.35,0,0,1-.33-.23,1.44,1.44,0,0,1-.11-.64,1.42,1.42,0,0,1,.11-.63.35.35,0,0,1,.33-.23h.9a3.1,3.1,0,0,0,.45,0,.6.6,0,0,0,.31-.1.48.48,0,0,0,.18-.25,1.45,1.45,0,0,0,.06-.47v-3H199v3.06a3.48,3.48,0,0,1-.2,1.27,1.94,1.94,0,0,1-.54.77,1.8,1.8,0,0,1-.77.38A3.84,3.84,0,0,1,196.57,22.16Zm2.49-6.86h-1.49V14h1.49Z"/></g></g><g id="Group_404" data-name="Group 404"><g id="Group_403" data-name="Group 403"><g id="Path_451" data-name="Path 451"><path class="cls-7" d="M135.5,10a7.5,7.5,0,1,1-7.5,7.5A7.5,7.5,0,0,1,135.5,10Z"/></g></g><g id="Path_452" data-name="Path 452"><path class="cls-3" d="M135.5,25a7.5,7.5,0,1,1,7.5-7.5A7.5,7.5,0,0,1,135.5,25Zm0-14.29a6.79,6.79,0,1,0,6.79,6.79,6.79,6.79,0,0,0-6.79-6.79Z"/></g></g></g></g></g></svg>