<svg id="Layer_1" data-name="Layer 1" xmlns="http://www.w3.org/2000/svg" viewBox="0 0 318 34"><defs><style>.cls-1{fill:#fff;}.cls-2{fill:#37c5ab;}.cls-3{fill:#2d2d61;}.cls-4{isolation:isolate;}.cls-5{fill:#26262c;}.cls-6{fill:#ea4e9d;}.cls-7{fill:#2282ff;}</style></defs><title>map reader</title><g id="Group_384" data-name="Group 384"><g id="Rectangle_149-2" data-name="Rectangle 149-2"><rect class="cls-1" width="318" height="34" rx="5"/></g><g id="Group_382" data-name="Group 382"><g id="Group_381" data-name="Group 381"><g id="Group_376" data-name="Group 376"><g id="Path_453" data-name="Path 453"><path class="cls-2" d="M21.5,10A7.5,7.5,0,1,1,14,17.5,7.5,7.5,0,0,1,21.5,10Z"/></g><g id="Path_454" data-name="Path 454"><path class="cls-3" d="M21.5,25A7.5,7.5,0,1,1,29,17.5,7.5,7.5,0,0,1,21.5,25Zm0-14.29a6.79,6.79,0,1,0,6.79,6.79,6.79,6.79,0,0,0-6.79-6.79Z"/></g></g><g id="פורסם_לפני_כן_" data-name="פורסם לפני כן " class="cls-4"><g class="cls-4"><path class="cls-5" d="M40.37,15.1l-.15-1.52h1.87l.16,1.52v8.5H40.37Z"/><path class="cls-5" d="M43.32,19.6H45.4a1.29,1.29,0,0,0,1.12-.5,2.27,2.27,0,0,0,.35-1.32v-1a2.3,2.3,0,0,0-.35-1.33A1.31,1.31,0,0,0,45.4,15H43.32v-1.4h2.59a2.56,2.56,0,0,1,2.12.89,3.7,3.7,0,0,1,.73,2.44v.76A3.72,3.72,0,0,1,48,20.11a2.59,2.59,0,0,1-2.12.89H43.32Z"/><path class="cls-5" d="M52.64,15.1l-.15-1.52h1.87l.16,1.52v2l0,.82-1.86.32Z"/><path class="cls-5" d="M55.73,19.6h1.89V15.84a1,1,0,0,0-.17-.66.86.86,0,0,0-.54-.25L56,14.8l.23-1.38,1.63.21a1.7,1.7,0,0,1,1.21.67,2.48,2.48,0,0,1,.43,1.49V21H55.73Z"/><path class="cls-5" d="M60.86,19.6h2.63a1.48,1.48,0,0,0,1.17-.49,2,2,0,0,0,.43-1.35v-1a2.15,2.15,0,0,0-.38-1.32,1.25,1.25,0,0,0-1.08-.5h-.94l-.23,1.11a1.22,1.22,0,0,0,0,.32.64.64,0,0,0,.2.5,1.32,1.32,0,0,0,.63.27L63,18.35a2.44,2.44,0,0,1-1.67-.52,1.76,1.76,0,0,1-.52-1.34,2.52,2.52,0,0,1,.05-.57l.52-2.34h2.74a2.66,2.66,0,0,1,2.12.89A3.62,3.62,0,0,1,67,16.89v.78a3.5,3.5,0,0,1-.82,2.45,2.86,2.86,0,0,1-2.21.88H60.86Z"/><path class="cls-5" d="M73.47,13.58v1.54L71.13,21H69.26l2.33-6H67.82v-3.3h1.69v1.9Z"/><path class="cls-5" d="M82.93,14.17a2.49,2.49,0,0,1,.6,1.85v5H77.18V13.58h4.1A2.24,2.24,0,0,1,82.93,14.17ZM81.65,19.6V15.93c0-.63-.29-.95-.87-.95H79.05V19.6Z"/><path class="cls-5" d="M90,20a8.3,8.3,0,0,1-4.39,1.11L84.88,15l-.18-1.4h4a2.64,2.64,0,0,1,2,.72,2.86,2.86,0,0,1,.74,2v.43A3.52,3.52,0,0,1,90,20Zm-1.32-.94a1.67,1.67,0,0,0,.72-.89,4.45,4.45,0,0,0,.17-1.52v-.39a1.53,1.53,0,0,0-.27-1,.9.9,0,0,0-.74-.35H86.76l.48,4.49A3.25,3.25,0,0,0,88.67,19.08Z"/><path class="cls-5" d="M95.82,15.93c0-.63-.29-.95-.87-.95H92.41v-1.4h3a2.24,2.24,0,0,1,1.65.59A2.49,2.49,0,0,1,97.7,16v5H95.82Z"/><path class="cls-5" d="M99.18,15.1,99,13.58h1.87l.16,1.52V21H99.18Z"/><path class="cls-5" d="M102.45,19.6h2.62a1.49,1.49,0,0,0,1.18-.49,2,2,0,0,0,.42-1.35v-1a2.15,2.15,0,0,0-.37-1.32,1.28,1.28,0,0,0-1.08-.5h-.94l-.23,1.11a1.22,1.22,0,0,0,0,.32.63.63,0,0,0,.19.5,1.32,1.32,0,0,0,.64.27l-.3,1.17a2.49,2.49,0,0,1-1.68-.52,1.79,1.79,0,0,1-.52-1.34,2.49,2.49,0,0,1,.06-.57l.52-2.34h2.74a2.66,2.66,0,0,1,2.12.89,3.62,3.62,0,0,1,.76,2.42v.78a3.46,3.46,0,0,1-.82,2.45,2.85,2.85,0,0,1-2.21.88h-3.06Z"/></g></g></g><g id="Group_379" data-name="Group 379"><g id="פורסם_היום_" data-name="פורסם היום " class="cls-4"><g class="cls-4"><path class="cls-5" d="M254.45,14.17a2.49,2.49,0,0,1,.6,1.85v5H248.7V13.58h4.1A2.22,2.22,0,0,1,254.45,14.17Zm-1.28,5.43V15.93c0-.63-.29-.95-.87-.95h-1.73V19.6Z"/><path class="cls-5" d="M256.5,15.1l-.16-1.52h1.87l.16,1.52V21H256.5Z"/><path class="cls-5" d="M259.86,15.1l-.15-1.52h1.87l.16,1.52v2l0,.82-1.86.32Z"/><path class="cls-5" d="M263.06,17.45l.26-.87H265V21h-1.89Zm4.34-1.52c0-.63-.29-.95-.87-.95h-3.39v-1.4H267a2.22,2.22,0,0,1,1.64.59,2.46,2.46,0,0,1,.61,1.85v5H267.4Z"/><path class="cls-5" d="M278.93,14.17a2.49,2.49,0,0,1,.6,1.85v5h-6.35V13.58h4.1A2.22,2.22,0,0,1,278.93,14.17Zm-1.28,5.43V15.93c0-.63-.29-.95-.87-.95h-1.73V19.6Z"/><path class="cls-5" d="M286,20a8.3,8.3,0,0,1-4.39,1.11L280.88,15l-.18-1.4h4a2.64,2.64,0,0,1,2,.72,2.86,2.86,0,0,1,.74,2v.43A3.52,3.52,0,0,1,286,20Zm-1.32-.94a1.67,1.67,0,0,0,.72-.89,4.45,4.45,0,0,0,.17-1.52v-.39a1.53,1.53,0,0,0-.27-1,.9.9,0,0,0-.74-.35h-1.79l.48,4.49A3.25,3.25,0,0,0,284.67,19.08Z"/><path class="cls-5" d="M291.82,15.93c0-.63-.29-.95-.87-.95h-2.54v-1.4h3a2.22,2.22,0,0,1,1.65.59,2.49,2.49,0,0,1,.6,1.85v5h-1.88Z"/><path class="cls-5" d="M295.18,15.1,295,13.58h1.87l.16,1.52V21h-1.88Z"/><path class="cls-5" d="M298.45,19.6h2.62a1.49,1.49,0,0,0,1.18-.49,2,2,0,0,0,.42-1.35v-1a2.15,2.15,0,0,0-.37-1.32,1.28,1.28,0,0,0-1.08-.5h-.94l-.23,1.11a1.22,1.22,0,0,0,0,.32.63.63,0,0,0,.19.5,1.32,1.32,0,0,0,.64.27l-.3,1.17a2.49,2.49,0,0,1-1.68-.52,1.79,1.79,0,0,1-.52-1.34,2.49,2.49,0,0,1,.06-.57l.52-2.34h2.74a2.66,2.66,0,0,1,2.12.89,3.62,3.62,0,0,1,.76,2.42v.78a3.46,3.46,0,0,1-.82,2.45,2.85,2.85,0,0,1-2.21.88h-3.06Z"/></g></g><g id="Group_377" data-name="Group 377"><g id="Path_463" data-name="Path 463"><path class="cls-6" d="M230.5,10a7.5,7.5,0,1,1-7.5,7.5A7.5,7.5,0,0,1,230.5,10Z"/></g><g id="Path_464" data-name="Path 464"><path class="cls-3" d="M230.5,25a7.5,7.5,0,1,1,7.5-7.5A7.5,7.5,0,0,1,230.5,25Zm0-14.29a6.79,6.79,0,1,0,6.79,6.79,6.79,6.79,0,0,0-6.79-6.79Z"/></g></g></g><g id="Group_380" data-name="Group 380"><g id="פורסם_אתמול_" data-name="פורסם אתמול " class="cls-4"><g class="cls-4"><path class="cls-5" d="M149.48,13.58v1.54L147.14,21h-1.87l2.33-6h-3.77v-3.3h1.69v1.9Z"/><path class="cls-5" d="M150.69,15.1l-.16-1.52h1.88l.15,1.52V21h-1.87Z"/><path class="cls-5" d="M160.26,20.14a2.87,2.87,0,0,1-2.36,1,4.83,4.83,0,0,1-1.19-.16l.17-1.4a3.85,3.85,0,0,0,.8.1,1.36,1.36,0,0,0,1.26-.59,3.2,3.2,0,0,0,.38-1.75,3.62,3.62,0,0,0-.36-1.86,1.18,1.18,0,0,0-1.09-.58,1.28,1.28,0,0,0-.88.31,1.39,1.39,0,0,0-.45.85L155.73,21h-1.87l.9-5-1-2.42h1.95l.52,1.48a2.29,2.29,0,0,1,.82-1.2,2,2,0,0,1,1.25-.4,2.51,2.51,0,0,1,2.12,1,4.72,4.72,0,0,1,.72,2.87A4.4,4.4,0,0,1,160.26,20.14Z"/><path class="cls-5" d="M161.84,20a1.89,1.89,0,0,0,.74-.2.72.72,0,0,0,.34-.39,2.07,2.07,0,0,0,.08-.73v-5h3.94a2.22,2.22,0,0,1,1.64.59,2.49,2.49,0,0,1,.6,1.85v5H167.3V15.93c0-.63-.29-.95-.88-.95h-1.53v3.41a3.44,3.44,0,0,1-.31,1.57,2,2,0,0,1-.92.88,5.09,5.09,0,0,1-1.66.38Z"/><path class="cls-5" d="M175.52,21l-2.44-3.78L171.92,21h-1.78l1.44-4.46.4-1-1.21-2h1.89l1,1.69.94,1.41L175,15.5l.52-1.92h1.78l-1.56,4.73L177.52,21Z"/><path class="cls-5" d="M186.93,14.17a2.49,2.49,0,0,1,.6,1.85v5h-6.36V13.58h4.11A2.24,2.24,0,0,1,186.93,14.17Zm-1.28,5.43V15.93c0-.63-.29-.95-.87-.95h-1.73V19.6Z"/><path class="cls-5" d="M194,20a8.3,8.3,0,0,1-4.39,1.11L188.88,15l-.18-1.4h4a2.64,2.64,0,0,1,2,.72,2.86,2.86,0,0,1,.74,2v.43A3.54,3.54,0,0,1,194,20Zm-1.32-.94a1.67,1.67,0,0,0,.72-.89,4.45,4.45,0,0,0,.17-1.52v-.39a1.53,1.53,0,0,0-.27-1,.9.9,0,0,0-.74-.35h-1.79l.48,4.49A3.25,3.25,0,0,0,192.67,19.08Z"/><path class="cls-5" d="M199.82,15.93c0-.63-.29-.95-.87-.95h-2.54v-1.4h3a2.24,2.24,0,0,1,1.65.59,2.49,2.49,0,0,1,.6,1.85v5h-1.88Z"/><path class="cls-5" d="M203.18,15.1,203,13.58h1.87l.16,1.52V21h-1.88Z"/><path class="cls-5" d="M206.45,19.6h2.62a1.5,1.5,0,0,0,1.18-.49,2,2,0,0,0,.42-1.35v-1a2.15,2.15,0,0,0-.37-1.32,1.28,1.28,0,0,0-1.09-.5h-.93L208,16.09a1.82,1.82,0,0,0,0,.32.63.63,0,0,0,.19.5,1.32,1.32,0,0,0,.64.27l-.3,1.17a2.49,2.49,0,0,1-1.68-.52,1.79,1.79,0,0,1-.52-1.34,3.27,3.27,0,0,1,0-.57l.52-2.34h2.75a2.68,2.68,0,0,1,2.12.89,3.62,3.62,0,0,1,.76,2.42v.78a3.46,3.46,0,0,1-.82,2.45,2.85,2.85,0,0,1-2.21.88h-3.06Z"/></g></g><g id="Group_378" data-name="Group 378"><g id="Path_451" data-name="Path 451"><path class="cls-7" d="M126.5,10a7.5,7.5,0,1,1-7.5,7.5A7.5,7.5,0,0,1,126.5,10Z"/></g><g id="Path_452" data-name="Path 452"><path class="cls-3" d="M126.5,25a7.5,7.5,0,1,1,7.5-7.5A7.5,7.5,0,0,1,126.5,25Zm0-14.29a6.79,6.79,0,1,0,6.79,6.79,6.79,6.79,0,0,0-6.79-6.79Z"/></g></g></g></g></g></svg>