<svg id="Layer_1" data-name="Layer 1" xmlns="http://www.w3.org/2000/svg" height="20px" width="20px" viewBox="0 0 72.2 72.2"><defs><style>.cls-1{fill:#ffb900;}.cls-2{fill:#2d2d61;}.cls-3{fill:#fff;}</style></defs><title>plane-map-icon</title><g id="Group_424" data-name="Group 424"><g id="Group_410" data-name="Group 410"><g id="Group_377" data-name="Group 377"><g id="Path_463" data-name="Path 463"><g id="Path_492" data-name="Path 492"><path class="cls-1" d="M36.1,0A36.1,36.1,0,1,1,0,36.1,36.1,36.1,0,0,1,36.1,0Z" transform="translate(0 0)"/></g></g><g id="Path_464" data-name="Path 464"><g id="Path_493" data-name="Path 493"><path class="cls-2" d="M36.1,72.2A36.1,36.1,0,1,1,72.2,36.1,36.1,36.1,0,0,1,36.1,72.2Zm0-68.79A32.69,32.69,0,1,0,68.79,36.1,32.69,32.69,0,0,0,36.1,3.41h0Z" transform="translate(0 0)"/></g></g></g></g><g id="plane"><g id="Group_423" data-name="Group 423"><g id="Path_524" data-name="Path 524"><path class="cls-3" d="M53.12,22.61l-3.47-2.52L30.94,27.64l-9.51-6.91a3.21,3.21,0,0,0-3.77,5.19l9.51,6.92L25.76,53l3.46,2.52,5.74-17,9.51,6.92.08,5.35,2.6,1.88,2.67-7.31L56,40.53l-2.6-1.88-5.11,1.57-9.51-6.91Z" transform="translate(0 0)"/><path class="cls-2" d="M30,57.89l-5.78-4.2,1.41-20.13-8.85-6.43a4.71,4.71,0,1,1,5.54-7.61l8.84,6.42,18.72-7.55,5.78,4.2L41.26,33.29l7.26,5.28L53.63,37l4.81,3.5-7.36,5.76L47.88,55l-4.81-3.5L43,46.18l-7.25-5.27Zm-2.67-5.65,1.13.83,5.74-17L46,44.64,46,50l.38.28,2.14-5.85,4.9-3.83-.38-.28L48,41.88,36.2,33.32l14.38-10.7-1.13-.83L30.73,29.35,20.55,21.94a1.71,1.71,0,0,0-2,2.77l10.19,7.4Z" transform="translate(0 0)"/></g></g></g></g></svg>