<?xml version="1.0" encoding="utf-8"?>
<!-- Generator: Adobe Illustrator 24.1.1, SVG Export Plug-In . SVG Version: 6.00 Build 0)  -->
<svg version="1.1" id="Layer_1" xmlns="http://www.w3.org/2000/svg" xmlns:xlink="http://www.w3.org/1999/xlink" x="0px" y="0px"
	 viewBox="0 0 38.1 32.5" style="enable-background:new 0 0 38.1 32.5;" xml:space="preserve">
<style type="text/css">
	.st0{fill:#FFFFFF;}
	.st1{fill:#4B4B51;}
</style>
<g id="Group_469" transform="translate(3968 11937.5)">
	<path id="Subtraction_2" class="st0" d="M-3948.9-11937.5c10.5,0,19.1,8.5,19.1,19.1v13.4h-38.1v-13.4
		C-3968-11929-3959.5-11937.5-3948.9-11937.5L-3948.9-11937.5z"/>
	<g id="Group_468" transform="translate(46 -30)">
		<g id="Group_466" transform="translate(-3986.857 -11890.68) rotate(90)">
			<g id="Group_460">
				<path id="Path_582" class="st1" d="M1.2,0C0.5,0,0,0.5,0,1.2v0V15c0,0.6,0.5,1.2,1.2,1.2c0.6,0,1.2-0.5,1.2-1.2c0,0,0,0,0,0V1.2
					C2.3,0.5,1.8,0,1.2,0z"/>
			</g>
		</g>
		<g id="Group_467" transform="translate(-3993.765 -11881.444) rotate(180)">
			<g id="Group_460-2">
				<path id="Path_582-2" class="st1" d="M1.2,0C0.5,0,0,0.5,0,1.2v0V15c0,0.6,0.5,1.2,1.2,1.2c0.6,0,1.2-0.5,1.2-1.2c0,0,0,0,0,0
					V1.2C2.3,0.5,1.8,0,1.2,0z"/>
			</g>
		</g>
	</g>
</g>
</svg>
