<svg id="Capa_1" data-name="Capa 1" xmlns="http://www.w3.org/2000/svg" viewBox="0 0 360 512"><title>pin</title><path d="M180,0C80.75,0,0,80.75,0,180a179.62,179.62,0,0,0,26.87,94.65L169.75,504.91A15,15,0,0,0,182.5,512h.12a15,15,0,0,0,12.75-7.29L334.61,272.22A179.78,179.78,0,0,0,360,180C360,80.75,279.25,0,180,0ZM308.87,256.82,182.27,468.19,52.37,258.85A149.79,149.79,0,0,1,29.8,180C29.8,97.29,97.29,29.8,180,29.8S330.1,97.29,330.1,180A149.9,149.9,0,0,1,308.87,256.82Z"/><path d="M180,90a90,90,0,1,0,90,90A90.1,90.1,0,0,0,180,90Zm0,150.2A60.2,60.2,0,1,1,240.1,180,60.24,60.24,0,0,1,180,240.2Z"/></svg>