<svg id="Layer_1" data-name="Layer 1" xmlns="http://www.w3.org/2000/svg" viewBox="0 0 566 81.25"><defs><style>.cls-1{fill:#26262c;}.cls-2{fill:#ffcf4a;}</style></defs><title>icm</title><path class="cls-1" d="M10,52H.55V1.4H10Z"/><path class="cls-1" d="M42.2,23.1a2.36,2.36,0,0,1-.73.79,2,2,0,0,1-1,.22,3,3,0,0,1-1.35-.35L37.48,23a14.91,14.91,0,0,0-2.16-.79,10.38,10.38,0,0,0-2.85-.35,6.66,6.66,0,0,0-4,1.08A3.38,3.38,0,0,0,27,25.76a2.69,2.69,0,0,0,.75,1.94,6.61,6.61,0,0,0,2,1.38,18.69,18.69,0,0,0,2.82,1.07c1.05.32,2.12.66,3.22,1s2.17.8,3.22,1.28a11.46,11.46,0,0,1,2.82,1.82,8.51,8.51,0,0,1,2,2.64,8.3,8.3,0,0,1,.76,3.71,11.93,11.93,0,0,1-.95,4.78,10.5,10.5,0,0,1-2.76,3.78,13.2,13.2,0,0,1-4.5,2.49,19.56,19.56,0,0,1-6.14.89,19.76,19.76,0,0,1-3.63-.33,20.9,20.9,0,0,1-3.39-.93,18.52,18.52,0,0,1-3-1.4,14.85,14.85,0,0,1-2.43-1.75l2-3.29a2.82,2.82,0,0,1,.91-.91A2.54,2.54,0,0,1,22,43.64a2.79,2.79,0,0,1,1.52.46c.48.3,1,.63,1.67,1a14.56,14.56,0,0,0,2.22,1,9.88,9.88,0,0,0,3.24.45,8.6,8.6,0,0,0,2.64-.36,5.7,5.7,0,0,0,1.82-1,3.49,3.49,0,0,0,1.05-1.38,4.17,4.17,0,0,0,.33-1.63,2.9,2.9,0,0,0-.75-2.06,6.57,6.57,0,0,0-2-1.4,19.09,19.09,0,0,0-2.83-1.07c-1.06-.31-2.15-.66-3.26-1a30.22,30.22,0,0,1-3.25-1.31,11.15,11.15,0,0,1-2.84-1.91,8.74,8.74,0,0,1-2-2.84,9.91,9.91,0,0,1-.75-4.06,10.43,10.43,0,0,1,.87-4.2,9.8,9.8,0,0,1,2.57-3.48,13,13,0,0,1,4.24-2.38,17.74,17.74,0,0,1,5.86-.89,18.12,18.12,0,0,1,6.76,1.22A15.25,15.25,0,0,1,44.16,20Z"/><path class="cls-1" d="M51.48,52V16.1h5.07a2.71,2.71,0,0,1,1.86.49,2.86,2.86,0,0,1,.7,1.68l.52,4.34a16.91,16.91,0,0,1,4.52-5.25A9.51,9.51,0,0,1,70,15.43a7.5,7.5,0,0,1,4.41,1.23l-1.12,6.47a1.39,1.39,0,0,1-.46.9,1.56,1.56,0,0,1-.94.26A5.69,5.69,0,0,1,70.41,24,9.79,9.79,0,0,0,68,23.8a7.33,7.33,0,0,0-4.62,1.49,11.41,11.41,0,0,0-3.26,4.35V52Z"/><path class="cls-1" d="M107.2,52h-3.89a4.07,4.07,0,0,1-1.92-.37,2.32,2.32,0,0,1-1-1.49l-.77-2.55a30,30,0,0,1-2.68,2.15,16.47,16.47,0,0,1-2.71,1.56,14,14,0,0,1-3,.94,17.9,17.9,0,0,1-3.5.32A14,14,0,0,1,83.5,52a9.16,9.16,0,0,1-3.31-1.85,8.39,8.39,0,0,1-2.15-3,11,11,0,0,1-.77-4.25,8.41,8.41,0,0,1,1.07-4,9.91,9.91,0,0,1,3.55-3.58,22.74,22.74,0,0,1,6.62-2.66,42.35,42.35,0,0,1,10.25-1V29.38q0-3.63-1.52-5.37a5.55,5.55,0,0,0-4.43-1.75,10.61,10.61,0,0,0-3.5.49,13.8,13.8,0,0,0-2.43,1.1c-.69.41-1.33.78-1.91,1.1a3.81,3.81,0,0,1-1.92.49A2.52,2.52,0,0,1,81.54,25a3.49,3.49,0,0,1-1-1.12L79,21.1a21.35,21.35,0,0,1,15-5.67,14.35,14.35,0,0,1,5.61,1,11.94,11.94,0,0,1,4.19,2.87,12.22,12.22,0,0,1,2.6,4.39,16.74,16.74,0,0,1,.9,5.6ZM90.4,46.62a11.77,11.77,0,0,0,2.45-.24A9.38,9.38,0,0,0,95,45.66a11.81,11.81,0,0,0,1.93-1.19,17.44,17.44,0,0,0,1.87-1.67v-6a34.89,34.89,0,0,0-6.32.48,16.39,16.39,0,0,0-4.07,1.22,5.25,5.25,0,0,0-2.19,1.72,3.88,3.88,0,0,0-.65,2.15,3.79,3.79,0,0,0,1.35,3.28A5.8,5.8,0,0,0,90.4,46.62Z"/><path class="cls-1" d="M130.54,15.54a17.31,17.31,0,0,1,6.25,1.09,13.65,13.65,0,0,1,4.92,3.16,14.56,14.56,0,0,1,3.22,5.11,19.29,19.29,0,0,1,1.15,6.91,12.12,12.12,0,0,1-.09,1.63,2.56,2.56,0,0,1-.31,1,1.28,1.28,0,0,1-.61.52,2.54,2.54,0,0,1-1,.16H121.9c.25,3.69,1.24,6.39,3,8.12a9.26,9.26,0,0,0,6.86,2.59,11.74,11.74,0,0,0,3.62-.49A16.46,16.46,0,0,0,138,44.27c.76-.39,1.43-.75,2-1.08a3.29,3.29,0,0,1,1.66-.49,1.88,1.88,0,0,1,.91.21,2.09,2.09,0,0,1,.67.59l2.52,3.15a14.54,14.54,0,0,1-3.22,2.82,17.87,17.87,0,0,1-3.73,1.82,19.55,19.55,0,0,1-4,1,27.75,27.75,0,0,1-3.9.28,19.08,19.08,0,0,1-7-1.24,15.54,15.54,0,0,1-5.6-3.67,17.2,17.2,0,0,1-3.75-6,23.34,23.34,0,0,1-1.36-8.32,19.72,19.72,0,0,1,1.19-6.91,16.57,16.57,0,0,1,3.41-5.63,16,16,0,0,1,5.42-3.8A18,18,0,0,1,130.54,15.54Zm.18,6.19a8,8,0,0,0-5.92,2.14,10.56,10.56,0,0,0-2.73,6.05h16.24a10.82,10.82,0,0,0-.45-3.16,7.47,7.47,0,0,0-1.4-2.61,6.63,6.63,0,0,0-2.38-1.77A8.15,8.15,0,0,0,130.72,21.73Z"/><path class="cls-1" d="M162.32,0V52h-8.65V0Z"/><path class="cls-1" d="M220.88,40.07a1.77,1.77,0,0,1,1.33.6l3.71,4a20.41,20.41,0,0,1-7.58,5.85,26.18,26.18,0,0,1-10.8,2,25.38,25.38,0,0,1-10.13-1.93,22.31,22.31,0,0,1-7.69-5.35,23.52,23.52,0,0,1-4.88-8.19,30.79,30.79,0,0,1-1.7-10.4A28,28,0,0,1,185,16.26a24.12,24.12,0,0,1,5.32-8.18,24.23,24.23,0,0,1,8.21-5.33A28.26,28.26,0,0,1,209.11.84,25,25,0,0,1,219,2.64a23,23,0,0,1,7.22,4.78L223,11.79a2.77,2.77,0,0,1-.71.74,2,2,0,0,1-1.21.31,2.76,2.76,0,0,1-1.65-.63,19.61,19.61,0,0,0-2.13-1.36,17.5,17.5,0,0,0-3.27-1.37,18.85,18.85,0,0,0-11.59.62,14.58,14.58,0,0,0-5.14,3.55A16.16,16.16,0,0,0,194,19.27a21.41,21.41,0,0,0-1.21,7.43A22.08,22.08,0,0,0,194,34.3a16.56,16.56,0,0,0,3.27,5.6,13.93,13.93,0,0,0,4.86,3.48,15,15,0,0,0,6,1.21,26.29,26.29,0,0,0,3.49-.21,14.36,14.36,0,0,0,2.87-.67A12.5,12.5,0,0,0,217,42.54a15.77,15.77,0,0,0,2.33-1.77,3.39,3.39,0,0,1,.73-.5A1.87,1.87,0,0,1,220.88,40.07Z"/><path class="cls-1" d="M247.86,15.54a19.8,19.8,0,0,1,7.3,1.29,15.8,15.8,0,0,1,5.58,3.68,16.27,16.27,0,0,1,3.57,5.81A22.1,22.1,0,0,1,265.57,34a22.17,22.17,0,0,1-1.26,7.7,16.62,16.62,0,0,1-3.57,5.85,15.47,15.47,0,0,1-5.58,3.71,21.36,21.36,0,0,1-14.62,0,15.59,15.59,0,0,1-5.61-3.71,16.56,16.56,0,0,1-3.61-5.85A21.93,21.93,0,0,1,230,34a21.86,21.86,0,0,1,1.28-7.66,16.21,16.21,0,0,1,3.61-5.81,15.92,15.92,0,0,1,5.61-3.68A19.91,19.91,0,0,1,247.86,15.54Zm0,30.34c3,0,5.2-1,6.63-3s2.15-5,2.15-8.83-.71-6.82-2.15-8.85-3.65-3.05-6.63-3.05-5.28,1-6.72,3.07-2.17,5-2.17,8.83.72,6.79,2.17,8.81S244.82,45.88,247.86,45.88Z"/><path class="cls-1" d="M272.32,52V16.1h5.08a2.7,2.7,0,0,1,1.85.49,2.8,2.8,0,0,1,.7,1.68l.53,4.34A17,17,0,0,1,285,17.36a9.55,9.55,0,0,1,5.81-1.93,7.46,7.46,0,0,1,4.41,1.23l-1.12,6.47a1.38,1.38,0,0,1-.45.9,1.6,1.6,0,0,1-.95.26,5.56,5.56,0,0,1-1.43-.25,9.82,9.82,0,0,0-2.42-.24,7.37,7.37,0,0,0-4.62,1.49A11.39,11.39,0,0,0,281,29.64V52Z"/><path class="cls-1" d="M316.25,15.54a19.71,19.71,0,0,1,7.29,1.29,15.75,15.75,0,0,1,5.59,3.68,16.27,16.27,0,0,1,3.57,5.81A22.1,22.1,0,0,1,334,34a22.17,22.17,0,0,1-1.26,7.7,16.62,16.62,0,0,1-3.57,5.85,15.42,15.42,0,0,1-5.59,3.71,19.71,19.71,0,0,1-7.29,1.29,19.91,19.91,0,0,1-7.32-1.29,15.59,15.59,0,0,1-5.61-3.71,16.56,16.56,0,0,1-3.61-5.85,21.93,21.93,0,0,1-1.28-7.7,21.86,21.86,0,0,1,1.28-7.66,16.21,16.21,0,0,1,3.61-5.81,15.92,15.92,0,0,1,5.61-3.68A19.91,19.91,0,0,1,316.25,15.54Zm0,30.34c3,0,5.2-1,6.63-3s2.15-5,2.15-8.83-.71-6.82-2.15-8.85-3.65-3.05-6.63-3.05-5.28,1-6.72,3.07-2.17,5-2.17,8.83.72,6.79,2.17,8.81S313.21,45.88,316.25,45.88Z"/><path class="cls-1" d="M340.71,52V16.1H346a2.12,2.12,0,0,1,2.2,1.57l.6,2.84a19.81,19.81,0,0,1,2.29-2,16.48,16.48,0,0,1,2.56-1.58,12.92,12.92,0,0,1,2.88-1,15.4,15.4,0,0,1,3.36-.35,12.83,12.83,0,0,1,5.22,1,10.37,10.37,0,0,1,3.8,2.8,12.24,12.24,0,0,1,2.3,4.3,18.16,18.16,0,0,1,.79,5.51V52h-8.64V29.15a7.64,7.64,0,0,0-1.53-5.09,5.62,5.62,0,0,0-4.56-1.8,9,9,0,0,0-4.2,1A14.89,14.89,0,0,0,349.36,26V52Z"/><path class="cls-1" d="M408.65,52h-3.89a4.1,4.1,0,0,1-1.92-.37,2.32,2.32,0,0,1-1-1.49L401,47.6a30,30,0,0,1-2.68,2.15,16.47,16.47,0,0,1-2.71,1.56,14,14,0,0,1-3,.94,17.83,17.83,0,0,1-3.5.32A14.11,14.11,0,0,1,385,52a9,9,0,0,1-3.3-1.85,8.42,8.42,0,0,1-2.16-3,11,11,0,0,1-.77-4.25,8.41,8.41,0,0,1,1.07-4,10,10,0,0,1,3.55-3.58A22.74,22.74,0,0,1,390,32.55a42.35,42.35,0,0,1,10.25-1V29.38c0-2.42-.5-4.21-1.52-5.37a5.55,5.55,0,0,0-4.43-1.75,10.65,10.65,0,0,0-3.5.49,13.8,13.8,0,0,0-2.43,1.1c-.69.41-1.32.78-1.91,1.1a3.81,3.81,0,0,1-1.92.49A2.52,2.52,0,0,1,383,25a3.49,3.49,0,0,1-1-1.12L380.4,21.1a21.35,21.35,0,0,1,15-5.67,14.35,14.35,0,0,1,5.61,1,11.94,11.94,0,0,1,4.19,2.87,12.22,12.22,0,0,1,2.6,4.39,16.74,16.74,0,0,1,.9,5.6Zm-16.8-5.39a11.77,11.77,0,0,0,2.45-.24,9.63,9.63,0,0,0,2.12-.72,12.17,12.17,0,0,0,1.92-1.19,17.44,17.44,0,0,0,1.87-1.67v-6a34.7,34.7,0,0,0-6.31.48,16.35,16.35,0,0,0-4.08,1.22,5.25,5.25,0,0,0-2.19,1.72,3.88,3.88,0,0,0-.65,2.15,3.79,3.79,0,0,0,1.35,3.28A5.8,5.8,0,0,0,391.85,46.62Z"/><path class="cls-1" d="M457.66,33.34c.34.8.67,1.61,1,2.43q.49-1.26,1-2.49c.35-.81.72-1.59,1.12-2.34l15-28a3.94,3.94,0,0,1,.57-.84,1.73,1.73,0,0,1,.67-.45,3.3,3.3,0,0,1,.82-.18c.3,0,.67,0,1.09,0H486V52h-8.29V19.32c0-.61,0-1.27.05-2s.09-1.45.16-2.2l-15.3,28.7a4,4,0,0,1-1.36,1.52,3.56,3.56,0,0,1-2,.54H458a3.56,3.56,0,0,1-2-.54,4,4,0,0,1-1.36-1.52L439.2,15c.09.77.16,1.53.19,2.26s.06,1.42.06,2.05V52h-8.3V1.4h7.11q.63,0,1.08,0a3.3,3.3,0,0,1,.82.18,1.87,1.87,0,0,1,.69.45,3.62,3.62,0,0,1,.59.84L456.56,31A24.9,24.9,0,0,1,457.66,33.34Z"/><path class="cls-1" d="M523.9,52H520a4.14,4.14,0,0,1-1.93-.37A2.36,2.36,0,0,1,517,50.15l-.77-2.55a28.67,28.67,0,0,1-2.68,2.15,16.07,16.07,0,0,1-2.71,1.56,13.72,13.72,0,0,1-3,.94,17.9,17.9,0,0,1-3.5.32,14,14,0,0,1-4.2-.61,9,9,0,0,1-3.31-1.85,8.39,8.39,0,0,1-2.15-3,10.78,10.78,0,0,1-.77-4.25,8.39,8.39,0,0,1,1.06-4,10,10,0,0,1,3.56-3.58,22.67,22.67,0,0,1,6.61-2.66,42.38,42.38,0,0,1,10.26-1V29.38q0-3.63-1.53-5.37a5.53,5.53,0,0,0-4.42-1.75,10.61,10.61,0,0,0-3.5.49,13.58,13.58,0,0,0-2.44,1.1c-.68.41-1.32.78-1.9,1.1a3.87,3.87,0,0,1-1.93.49,2.51,2.51,0,0,1-1.5-.45,3.64,3.64,0,0,1-1-1.12l-1.57-2.77a21.35,21.35,0,0,1,14.94-5.67,14.44,14.44,0,0,1,5.62,1,11.9,11.9,0,0,1,4.18,2.87A12.38,12.38,0,0,1,523,23.73a17,17,0,0,1,.89,5.6Zm-16.8-5.39a11.7,11.7,0,0,0,2.45-.24,9.46,9.46,0,0,0,2.12-.72,11.73,11.73,0,0,0,1.92-1.19,17.5,17.5,0,0,0,1.88-1.67v-6a34.82,34.82,0,0,0-6.32.48,16.61,16.61,0,0,0-4.08,1.22,5.32,5.32,0,0,0-2.19,1.72,3.87,3.87,0,0,0-.64,2.15,3.81,3.81,0,0,0,1.34,3.28A5.8,5.8,0,0,0,507.1,46.62Z"/><path class="cls-1" d="M532.41,63.73V16.1h5.28a2.66,2.66,0,0,1,1.44.38,1.86,1.86,0,0,1,.77,1.19l.7,3.33a18.14,18.14,0,0,1,5-4,13.63,13.63,0,0,1,6.6-1.54,11.72,11.72,0,0,1,5.37,1.23,12,12,0,0,1,4.2,3.55A17,17,0,0,1,564.48,26a28.55,28.55,0,0,1,1,7.82,24.72,24.72,0,0,1-1.09,7.46,18,18,0,0,1-3.1,6,14.36,14.36,0,0,1-4.86,3.94A14.21,14.21,0,0,1,550,52.53a12.8,12.8,0,0,1-5.16-.92,12.66,12.66,0,0,1-3.8-2.58v14.7Zm16.8-41.47a8.85,8.85,0,0,0-4.61,1.14,13.34,13.34,0,0,0-3.55,3.2V42.7a8.31,8.31,0,0,0,3.2,2.54A9.64,9.64,0,0,0,548,46a8.35,8.35,0,0,0,3.55-.73,7,7,0,0,0,2.7-2.24,11.21,11.21,0,0,0,1.7-3.8,22,22,0,0,0,.59-5.41,23.83,23.83,0,0,0-.51-5.33,10.37,10.37,0,0,0-1.45-3.56,5.71,5.71,0,0,0-2.29-2A7.15,7.15,0,0,0,549.21,22.26Z"/><g id="Line_19" data-name="Line 19"><path class="cls-2" d="M564,81.25H2a2,2,0,0,1,0-4H564a2,2,0,0,1,0,4Z"/></g></svg>