<svg xmlns="http://www.w3.org/2000/svg" width="17.089" height="17.089" viewBox="0 0 17.089 17.089">
  <path id="Path_363" data-name="Path 363" d="M16.758,13.589l-1.895-1.263L13.179,11.2a.746.746,0,0,0-1,.163l-1.042,1.34a.742.742,0,0,1-.948.2A12.134,12.134,0,0,1,6.8,10.291,12.221,12.221,0,0,1,4.188,6.9a.742.742,0,0,1,.2-.948l1.34-1.042a.746.746,0,0,0,.163-1L4.8,2.279,3.5.332a.746.746,0,0,0-1-.226L1,1A1.828,1.828,0,0,0,.17,2.079C-.239,3.571-.322,6.862,4.953,12.137s8.566,5.192,10.058,4.783a1.828,1.828,0,0,0,1.075-.83l.9-1.5A.746.746,0,0,0,16.758,13.589Z" transform="translate(0 0)" fill="#fff"/>
</svg>
