<svg id="Layer_1" data-name="Layer 1" xmlns="http://www.w3.org/2000/svg" viewBox="0 0 852.37 81.25"><defs><style>.cls-1{fill:#ffcf4a;}</style></defs><title>Poweredby</title><path d="M8.45,39.83V52H0V15.58H12.85a21.09,21.09,0,0,1,6.61.92A12.66,12.66,0,0,1,24,19a9.86,9.86,0,0,1,2.64,3.77,12.74,12.74,0,0,1,.85,4.7,13.85,13.85,0,0,1-.87,5A10.07,10.07,0,0,1,24,36.38a12.54,12.54,0,0,1-4.56,2.54,20.86,20.86,0,0,1-6.54.91Zm0-6.37h4.4q3.3,0,4.75-1.58a6.23,6.23,0,0,0,1.45-4.4,6.55,6.55,0,0,0-.38-2.27,4.6,4.6,0,0,0-1.13-1.76,5.18,5.18,0,0,0-1.93-1.14,8.38,8.38,0,0,0-2.76-.4H8.45Z"/><path d="M42.7,25.68a14.83,14.83,0,0,1,5.37.93,11.85,11.85,0,0,1,4.17,2.65,12.06,12.06,0,0,1,2.7,4.19,15.09,15.09,0,0,1,1,5.53,15.42,15.42,0,0,1-1,5.59,12.14,12.14,0,0,1-2.7,4.23,11.76,11.76,0,0,1-4.17,2.67,14.62,14.62,0,0,1-5.37.94,14.84,14.84,0,0,1-5.41-.94,11.69,11.69,0,0,1-6.93-6.9,15.42,15.42,0,0,1-1-5.59,15.09,15.09,0,0,1,1-5.53,11.71,11.71,0,0,1,2.73-4.19,12,12,0,0,1,4.2-2.65A15.06,15.06,0,0,1,42.7,25.68Zm0,21a4.42,4.42,0,0,0,3.94-1.89A10.46,10.46,0,0,0,47.9,39a10.39,10.39,0,0,0-1.26-5.72,4.43,4.43,0,0,0-3.94-1.88,4.54,4.54,0,0,0-4,1.88A10.29,10.29,0,0,0,37.4,39a10.37,10.37,0,0,0,1.27,5.74A4.52,4.52,0,0,0,42.7,46.66Z"/><path d="M57.15,26.08h6.2a2.62,2.62,0,0,1,1.42.38,1.48,1.48,0,0,1,.73,1l2.6,11.63c.2.88.38,1.74.55,2.57s.32,1.66.45,2.48c.23-.82.48-1.64.74-2.46s.51-1.69.76-2.59l3.25-11.65a1.67,1.67,0,0,1,.72-1,2.34,2.34,0,0,1,1.33-.39h3.45a2.48,2.48,0,0,1,1.41.39,1.67,1.67,0,0,1,.74,1l3.1,11.65c.23.88.47,1.74.71,2.57s.47,1.68.69,2.53c.13-.83.29-1.66.49-2.49s.39-1.69.61-2.61l2.75-11.63a1.48,1.48,0,0,1,.71-1,2.44,2.44,0,0,1,1.34-.38h5.9L89.75,52h-6.3a1.26,1.26,0,0,1-.85-.3,2,2,0,0,1-.55-1l-3.7-12.93c-.17-.58-.33-1.15-.48-1.72s-.28-1.13-.4-1.7c-.11.58-.24,1.16-.38,1.74s-.31,1.15-.49,1.73L72.85,50.71A1.59,1.59,0,0,1,71.2,52h-6Z"/><path d="M111.9,25.68a13.42,13.42,0,0,1,4.71.8,10.32,10.32,0,0,1,3.68,2.33,10.75,10.75,0,0,1,2.4,3.74,13.78,13.78,0,0,1,.86,5,10.69,10.69,0,0,1-.08,1.42,2.34,2.34,0,0,1-.27.88,1,1,0,0,1-.54.45,2.58,2.58,0,0,1-.86.12h-15a7.37,7.37,0,0,0,2,4.72A5.9,5.9,0,0,0,113,46.61a7.25,7.25,0,0,0,2.32-.33,10.85,10.85,0,0,0,1.74-.72l1.4-.73a3,3,0,0,1,1.34-.32,1.61,1.61,0,0,1,1.4.67L123.4,48a11.48,11.48,0,0,1-2.59,2.24A13.71,13.71,0,0,1,118,51.55a15.38,15.38,0,0,1-2.92.67,21.21,21.21,0,0,1-2.79.19,14.56,14.56,0,0,1-5.11-.89A11.62,11.62,0,0,1,103,48.88a12.31,12.31,0,0,1-2.82-4.35,16.07,16.07,0,0,1-1-6.05,13.5,13.5,0,0,1,.89-4.92,11.94,11.94,0,0,1,6.57-6.85A13.35,13.35,0,0,1,111.9,25.68Zm.15,5.35a4.69,4.69,0,0,0-3.48,1.27,6.6,6.6,0,0,0-1.65,3.63h9.68a6.85,6.85,0,0,0-.24-1.8,4.56,4.56,0,0,0-.77-1.56,3.87,3.87,0,0,0-1.42-1.11A4.85,4.85,0,0,0,112.05,31Z"/><path d="M128,52V26.08h4.6a4.29,4.29,0,0,1,1,.1,1.72,1.72,0,0,1,.65.32,1.28,1.28,0,0,1,.4.56,5.58,5.58,0,0,1,.24.85l.42,2.42a12.83,12.83,0,0,1,3.2-3.47,6.54,6.54,0,0,1,3.88-1.28,4.52,4.52,0,0,1,2.85.85l-1,5.7a1.13,1.13,0,0,1-.4.74,1.38,1.38,0,0,1-.8.21,4.83,4.83,0,0,1-1-.11,8.31,8.31,0,0,0-1.45-.11q-3.06,0-4.8,3.25V52Z"/><path d="M159.75,25.68a13.42,13.42,0,0,1,4.71.8,10.32,10.32,0,0,1,3.68,2.33,10.75,10.75,0,0,1,2.4,3.74,13.78,13.78,0,0,1,.86,5,10.69,10.69,0,0,1-.08,1.42,2.34,2.34,0,0,1-.27.88,1,1,0,0,1-.54.45,2.58,2.58,0,0,1-.86.12h-15a7.37,7.37,0,0,0,2,4.72,5.9,5.9,0,0,0,4.13,1.46,7.25,7.25,0,0,0,2.32-.33,10.85,10.85,0,0,0,1.74-.72l1.4-.73a3,3,0,0,1,1.34-.32,1.61,1.61,0,0,1,1.4.67L171.25,48a11.48,11.48,0,0,1-2.59,2.24,13.71,13.71,0,0,1-2.85,1.35,15.38,15.38,0,0,1-2.92.67,21.21,21.21,0,0,1-2.79.19,14.56,14.56,0,0,1-5.11-.89,11.62,11.62,0,0,1-4.18-2.64A12.31,12.31,0,0,1,148,44.53a16.07,16.07,0,0,1-1-6.05,13.5,13.5,0,0,1,.89-4.92,11.94,11.94,0,0,1,6.57-6.85A13.35,13.35,0,0,1,159.75,25.68ZM159.9,31a4.69,4.69,0,0,0-3.48,1.27,6.6,6.6,0,0,0-1.65,3.63h9.68a6.85,6.85,0,0,0-.24-1.8,4.56,4.56,0,0,0-.77-1.56A3.87,3.87,0,0,0,162,31.46,4.85,4.85,0,0,0,159.9,31Z"/><path d="M194.05,52a2.14,2.14,0,0,1-1.22-.33,1.71,1.71,0,0,1-.68-1l-.6-2a15.24,15.24,0,0,1-1.63,1.5,10.26,10.26,0,0,1-1.84,1.17,10,10,0,0,1-2.12.75,11.25,11.25,0,0,1-2.46.26,8,8,0,0,1-3.75-.9,8.75,8.75,0,0,1-3-2.6,13.27,13.27,0,0,1-2-4.16,20.08,20.08,0,0,1-.71-5.62,17.28,17.28,0,0,1,.8-5.38,13.24,13.24,0,0,1,2.26-4.3,10.56,10.56,0,0,1,3.51-2.84,10.05,10.05,0,0,1,4.53-1,8.67,8.67,0,0,1,3.38.59,9.79,9.79,0,0,1,2.52,1.54V14.58h7.75V52Zm-7.85-5.55a6.68,6.68,0,0,0,1.54-.16,5.74,5.74,0,0,0,1.26-.47,5.51,5.51,0,0,0,1.08-.75,9.3,9.3,0,0,0,1-1V33a5.17,5.17,0,0,0-1.91-1.36,5.93,5.93,0,0,0-2.14-.39,4.63,4.63,0,0,0-2,.43,4,4,0,0,0-1.56,1.36,7.35,7.35,0,0,0-1,2.44,15.16,15.16,0,0,0-.37,3.62,16.75,16.75,0,0,0,.3,3.45,7.1,7.1,0,0,0,.84,2.27,3.19,3.19,0,0,0,1.28,1.23A3.71,3.71,0,0,0,186.2,46.46Z"/><path d="M214.5,52V14.58h7.75V28.83a11.64,11.64,0,0,1,3.28-2.28,10,10,0,0,1,4.32-.87,8.22,8.22,0,0,1,3.75.88,8.41,8.41,0,0,1,3,2.56,12.83,12.83,0,0,1,2,4.14,19.75,19.75,0,0,1,.72,5.57,17,17,0,0,1-.82,5.4,13.55,13.55,0,0,1-2.27,4.3,10.43,10.43,0,0,1-3.5,2.85,9.81,9.81,0,0,1-4.51,1,8.68,8.68,0,0,1-2.07-.23A6.89,6.89,0,0,1,223,50.56a14.65,14.65,0,0,1-1.24-1.25l-.27,1.3a1.68,1.68,0,0,1-.64,1.1,2.19,2.19,0,0,1-1.21.3Zm12.65-20.5a6.62,6.62,0,0,0-1.54.16,5.89,5.89,0,0,0-1.28.46,4.74,4.74,0,0,0-1.08.77,10.26,10.26,0,0,0-1,1.06V45a4.84,4.84,0,0,0,1.9,1.36,6,6,0,0,0,2.15.39,4.47,4.47,0,0,0,2-.43,3.93,3.93,0,0,0,1.56-1.36,7.06,7.06,0,0,0,1-2.44,15.21,15.21,0,0,0,.38-3.65,16.88,16.88,0,0,0-.3-3.45,7.13,7.13,0,0,0-.84-2.26,3.31,3.31,0,0,0-1.29-1.24A3.69,3.69,0,0,0,227.15,31.51Z"/><path d="M253.1,58.73a2.84,2.84,0,0,1-.85,1.14,2.8,2.8,0,0,1-1.6.36h-5.8l5-10.5L239.5,26.08h6.85a2.24,2.24,0,0,1,1.4.4,2.29,2.29,0,0,1,.7.95l4.25,11.18a24.59,24.59,0,0,1,1,3.1c.17-.53.35-1.06.55-1.58s.39-1,.58-1.57l3.85-11.13a1.89,1.89,0,0,1,.78-1,2.28,2.28,0,0,1,1.27-.39H267Z"/><path d="M296.37,52h-9.45V1.4h9.45Z"/><path d="M328.57,23.1a2.36,2.36,0,0,1-.73.79,2,2,0,0,1-1,.22,3,3,0,0,1-1.35-.35L323.85,23a14.91,14.91,0,0,0-2.16-.79,10.38,10.38,0,0,0-2.85-.35,6.66,6.66,0,0,0-4,1.08,3.38,3.38,0,0,0-1.47,2.84,2.69,2.69,0,0,0,.75,1.94,6.48,6.48,0,0,0,2,1.38,18.69,18.69,0,0,0,2.82,1.07c1,.32,2.12.66,3.22,1s2.17.8,3.22,1.28a11.46,11.46,0,0,1,2.82,1.82,8.06,8.06,0,0,1,2.75,6.35,11.93,11.93,0,0,1-.95,4.78,10.5,10.5,0,0,1-2.76,3.78,13.2,13.2,0,0,1-4.5,2.49,19.56,19.56,0,0,1-6.14.89,19.76,19.76,0,0,1-3.63-.33,20.63,20.63,0,0,1-3.39-.93,18.52,18.52,0,0,1-3-1.4,14.85,14.85,0,0,1-2.43-1.75l2-3.29A2.82,2.82,0,0,1,307,44a2.54,2.54,0,0,1,1.33-.32,2.82,2.82,0,0,1,1.52.46c.48.3,1,.63,1.67,1a14.56,14.56,0,0,0,2.22,1,9.88,9.88,0,0,0,3.24.45,8.6,8.6,0,0,0,2.64-.36,5.7,5.7,0,0,0,1.82-1,3.49,3.49,0,0,0,1.05-1.38,4.17,4.17,0,0,0,.33-1.63,2.9,2.9,0,0,0-.75-2.06,6.57,6.57,0,0,0-2-1.4,19.53,19.53,0,0,0-2.83-1.07c-1.06-.31-2.15-.66-3.26-1a29.41,29.41,0,0,1-3.25-1.31,11.15,11.15,0,0,1-2.84-1.91,8.59,8.59,0,0,1-2-2.84,9.91,9.91,0,0,1-.75-4.06,10.43,10.43,0,0,1,.87-4.2,9.8,9.8,0,0,1,2.57-3.48,12.92,12.92,0,0,1,4.24-2.38,17.74,17.74,0,0,1,5.86-.89,18.12,18.12,0,0,1,6.76,1.22A15.25,15.25,0,0,1,330.53,20Z"/><path d="M337.85,52V16.1h5.07a2.71,2.71,0,0,1,1.86.49,2.86,2.86,0,0,1,.7,1.68l.52,4.34a16.91,16.91,0,0,1,4.52-5.25,9.51,9.51,0,0,1,5.81-1.93,7.5,7.5,0,0,1,4.41,1.23l-1.12,6.47a1.39,1.39,0,0,1-.46.9,1.56,1.56,0,0,1-.94.26,5.69,5.69,0,0,1-1.44-.25,9.79,9.79,0,0,0-2.41-.24,7.33,7.33,0,0,0-4.62,1.49,11.41,11.41,0,0,0-3.26,4.35V52Z"/><path d="M393.57,52h-3.89a4.07,4.07,0,0,1-1.92-.37,2.32,2.32,0,0,1-1.05-1.49l-.77-2.55a30,30,0,0,1-2.68,2.15,16.47,16.47,0,0,1-2.71,1.56,14,14,0,0,1-3,.94,17.9,17.9,0,0,1-3.5.32,14,14,0,0,1-4.2-.61,9.08,9.08,0,0,1-3.31-1.85,8.39,8.39,0,0,1-2.15-3,11,11,0,0,1-.77-4.25,8.41,8.41,0,0,1,1.07-4,9.91,9.91,0,0,1,3.55-3.58,22.74,22.74,0,0,1,6.62-2.66,42.35,42.35,0,0,1,10.25-1V29.38q0-3.63-1.52-5.37a5.55,5.55,0,0,0-4.43-1.75,10.61,10.61,0,0,0-3.5.49,13.8,13.8,0,0,0-2.43,1.1c-.69.41-1.33.78-1.91,1.1a3.81,3.81,0,0,1-1.92.49,2.52,2.52,0,0,1-1.51-.45,3.49,3.49,0,0,1-1-1.12l-1.58-2.77a21.35,21.35,0,0,1,14.95-5.67,14.35,14.35,0,0,1,5.61,1,11.94,11.94,0,0,1,4.19,2.87,12.22,12.22,0,0,1,2.6,4.39,16.74,16.74,0,0,1,.9,5.6Zm-16.8-5.39a11.77,11.77,0,0,0,2.45-.24,9.38,9.38,0,0,0,2.11-.72,11.81,11.81,0,0,0,1.93-1.19,17.44,17.44,0,0,0,1.87-1.67v-6a34.82,34.82,0,0,0-6.32.48,16.39,16.39,0,0,0-4.07,1.22,5.25,5.25,0,0,0-2.19,1.72,3.88,3.88,0,0,0-.65,2.15,3.79,3.79,0,0,0,1.35,3.28A5.8,5.8,0,0,0,376.77,46.62Z"/><path d="M416.91,15.54a17.31,17.31,0,0,1,6.25,1.09,13.65,13.65,0,0,1,4.92,3.16,14.4,14.4,0,0,1,3.21,5.11,19.07,19.07,0,0,1,1.16,6.91,12.12,12.12,0,0,1-.09,1.63,2.73,2.73,0,0,1-.31,1,1.28,1.28,0,0,1-.61.52,2.54,2.54,0,0,1-1,.16H408.27c.25,3.69,1.24,6.39,3,8.12a9.26,9.26,0,0,0,6.86,2.59,11.74,11.74,0,0,0,3.62-.49,16.46,16.46,0,0,0,2.66-1.09c.76-.39,1.43-.75,2-1.08A3.29,3.29,0,0,1,428,42.7a1.88,1.88,0,0,1,.91.21,2.09,2.09,0,0,1,.67.59l2.51,3.15a14.27,14.27,0,0,1-3.21,2.82,17.87,17.87,0,0,1-3.73,1.82,19.71,19.71,0,0,1-4,1,27.75,27.75,0,0,1-3.9.28,19.08,19.08,0,0,1-7-1.24,15.54,15.54,0,0,1-5.6-3.67,17.2,17.2,0,0,1-3.75-6,23.34,23.34,0,0,1-1.36-8.32,19.72,19.72,0,0,1,1.19-6.91,16.57,16.57,0,0,1,3.41-5.63,16,16,0,0,1,5.42-3.8A18,18,0,0,1,416.91,15.54Zm.18,6.19a8,8,0,0,0-5.92,2.14,10.56,10.56,0,0,0-2.73,6.05h16.24a10.82,10.82,0,0,0-.45-3.16,7.47,7.47,0,0,0-1.4-2.61,6.63,6.63,0,0,0-2.38-1.77A8.15,8.15,0,0,0,417.09,21.73Z"/><path d="M448.69,0V52H440V0Z"/><path d="M507.24,40.07a1.74,1.74,0,0,1,1.33.6l3.71,4a20.3,20.3,0,0,1-7.57,5.85,26.18,26.18,0,0,1-10.8,2,25.35,25.35,0,0,1-10.13-1.93,22.31,22.31,0,0,1-7.69-5.35,23.52,23.52,0,0,1-4.88-8.19,30.79,30.79,0,0,1-1.7-10.4,28,28,0,0,1,1.89-10.44,24.12,24.12,0,0,1,5.32-8.18,24.23,24.23,0,0,1,8.21-5.33A28.26,28.26,0,0,1,495.48.84a25,25,0,0,1,9.86,1.8,23,23,0,0,1,7.22,4.78l-3.15,4.37a2.77,2.77,0,0,1-.71.74,2.07,2.07,0,0,1-1.21.31,2.76,2.76,0,0,1-1.65-.63,20.64,20.64,0,0,0-2.13-1.36,17.5,17.5,0,0,0-3.27-1.37,18.85,18.85,0,0,0-11.59.62,14.58,14.58,0,0,0-5.14,3.55,16.16,16.16,0,0,0-3.36,5.62,21.41,21.41,0,0,0-1.21,7.43,22.08,22.08,0,0,0,1.21,7.6,16.56,16.56,0,0,0,3.27,5.6,13.93,13.93,0,0,0,4.86,3.48,15,15,0,0,0,6,1.21,26.29,26.29,0,0,0,3.49-.21,14.53,14.53,0,0,0,2.87-.67,12.5,12.5,0,0,0,2.48-1.17,15.77,15.77,0,0,0,2.33-1.77,3.39,3.39,0,0,1,.73-.5A1.86,1.86,0,0,1,507.24,40.07Z"/><path d="M534.23,15.54a19.71,19.71,0,0,1,7.29,1.29,15.75,15.75,0,0,1,5.59,3.68,16.27,16.27,0,0,1,3.57,5.81A22.1,22.1,0,0,1,551.94,34a22.17,22.17,0,0,1-1.26,7.7,16.62,16.62,0,0,1-3.57,5.85,15.42,15.42,0,0,1-5.59,3.71,19.71,19.71,0,0,1-7.29,1.29,19.91,19.91,0,0,1-7.32-1.29,15.72,15.72,0,0,1-5.62-3.71,16.68,16.68,0,0,1-3.6-5.85,21.93,21.93,0,0,1-1.28-7.7,21.86,21.86,0,0,1,1.28-7.66,16.33,16.33,0,0,1,3.6-5.81,16.05,16.05,0,0,1,5.62-3.68A19.91,19.91,0,0,1,534.23,15.54Zm0,30.34q4.47,0,6.63-3T543,34.05q0-5.8-2.15-8.85t-6.63-3.05c-3,0-5.28,1-6.72,3.07s-2.17,5-2.17,8.83.72,6.79,2.17,8.81S531.19,45.88,534.23,45.88Z"/><path d="M558.69,52V16.1h5.08a2.7,2.7,0,0,1,1.85.49,2.8,2.8,0,0,1,.7,1.68l.53,4.34a16.88,16.88,0,0,1,4.51-5.25,9.55,9.55,0,0,1,5.81-1.93,7.46,7.46,0,0,1,4.41,1.23l-1.12,6.47a1.38,1.38,0,0,1-.45.9,1.6,1.6,0,0,1-1,.26,5.56,5.56,0,0,1-1.43-.25,9.88,9.88,0,0,0-2.42-.24,7.37,7.37,0,0,0-4.62,1.49,11.39,11.39,0,0,0-3.25,4.35V52Z"/><path d="M602.62,15.54a19.71,19.71,0,0,1,7.29,1.29,15.75,15.75,0,0,1,5.59,3.68,16.27,16.27,0,0,1,3.57,5.81A22.1,22.1,0,0,1,620.33,34a22.17,22.17,0,0,1-1.26,7.7,16.62,16.62,0,0,1-3.57,5.85,15.42,15.42,0,0,1-5.59,3.71,19.71,19.71,0,0,1-7.29,1.29,19.91,19.91,0,0,1-7.32-1.29,15.72,15.72,0,0,1-5.62-3.71,16.68,16.68,0,0,1-3.6-5.85A21.93,21.93,0,0,1,584.8,34a21.86,21.86,0,0,1,1.28-7.66,16.33,16.33,0,0,1,3.6-5.81,16.05,16.05,0,0,1,5.62-3.68A19.91,19.91,0,0,1,602.62,15.54Zm0,30.34q4.47,0,6.63-3t2.15-8.83q0-5.8-2.15-8.85t-6.63-3.05c-3,0-5.28,1-6.72,3.07s-2.17,5-2.17,8.83.72,6.79,2.17,8.81S599.58,45.88,602.62,45.88Z"/><path d="M627.08,52V16.1h5.29a2.12,2.12,0,0,1,2.2,1.57l.6,2.84a19,19,0,0,1,2.29-2A16.39,16.39,0,0,1,640,16.9a13.18,13.18,0,0,1,2.89-1,15.4,15.4,0,0,1,3.36-.35,12.83,12.83,0,0,1,5.22,1,10.25,10.25,0,0,1,3.79,2.8,12.1,12.1,0,0,1,2.31,4.3,18.16,18.16,0,0,1,.79,5.51V52h-8.64V29.15a7.64,7.64,0,0,0-1.53-5.09,5.62,5.62,0,0,0-4.56-1.8,9,9,0,0,0-4.2,1A14.89,14.89,0,0,0,635.73,26V52Z"/><path d="M695,52h-3.89a4.07,4.07,0,0,1-1.92-.37,2.32,2.32,0,0,1-1.05-1.49l-.77-2.55a30,30,0,0,1-2.68,2.15A16.47,16.47,0,0,1,682,51.31a14,14,0,0,1-3,.94,17.9,17.9,0,0,1-3.5.32,14,14,0,0,1-4.2-.61A9.16,9.16,0,0,1,668,50.11a8.52,8.52,0,0,1-2.15-3,11,11,0,0,1-.77-4.25,8.41,8.41,0,0,1,1.07-4,9.91,9.91,0,0,1,3.55-3.58,22.74,22.74,0,0,1,6.62-2.66,42.35,42.35,0,0,1,10.25-1V29.38q0-3.63-1.52-5.37a5.55,5.55,0,0,0-4.43-1.75,10.61,10.61,0,0,0-3.5.49,13.8,13.8,0,0,0-2.43,1.1c-.69.41-1.32.78-1.91,1.1a3.81,3.81,0,0,1-1.92.49,2.52,2.52,0,0,1-1.51-.45,3.49,3.49,0,0,1-1-1.12l-1.58-2.77a21.35,21.35,0,0,1,15-5.67,14.35,14.35,0,0,1,5.61,1,11.94,11.94,0,0,1,4.19,2.87,12.22,12.22,0,0,1,2.6,4.39,16.74,16.74,0,0,1,.9,5.6Zm-16.8-5.39a11.77,11.77,0,0,0,2.45-.24,9.38,9.38,0,0,0,2.11-.72,11.81,11.81,0,0,0,1.93-1.19,17.44,17.44,0,0,0,1.87-1.67v-6a34.89,34.89,0,0,0-6.32.48,16.39,16.39,0,0,0-4.07,1.22A5.25,5.25,0,0,0,674,40.2a3.88,3.88,0,0,0-.65,2.15,3.79,3.79,0,0,0,1.35,3.28A5.8,5.8,0,0,0,678.22,46.62Z"/><path d="M744,33.34c.34.8.67,1.61,1,2.43q.5-1.26,1-2.49c.35-.81.72-1.59,1.12-2.34l15-28a3.94,3.94,0,0,1,.57-.84,1.73,1.73,0,0,1,.67-.45,3.3,3.3,0,0,1,.82-.18c.3,0,.67,0,1.09,0h7.1V52h-8.29V19.32c0-.61,0-1.27,0-2s.09-1.45.16-2.2L749,43.82a4,4,0,0,1-1.36,1.52,3.56,3.56,0,0,1-2,.54h-1.3a3.54,3.54,0,0,1-2-.54,4,4,0,0,1-1.36-1.52L725.57,15c.09.77.16,1.53.19,2.26s.06,1.42.06,2.05V52h-8.3V1.4h7.11q.63,0,1.08,0a3.3,3.3,0,0,1,.82.18,1.87,1.87,0,0,1,.69.45,3.62,3.62,0,0,1,.59.84L742.93,31A24.9,24.9,0,0,1,744,33.34Z"/><path d="M810.27,52h-3.88a4.14,4.14,0,0,1-1.93-.37,2.32,2.32,0,0,1-1.05-1.49l-.77-2.55A28.67,28.67,0,0,1,800,49.75a16.07,16.07,0,0,1-2.71,1.56,13.72,13.72,0,0,1-3,.94,17.9,17.9,0,0,1-3.5.32,14,14,0,0,1-4.2-.61,9,9,0,0,1-3.31-1.85,8.39,8.39,0,0,1-2.15-3,10.78,10.78,0,0,1-.77-4.25,8.39,8.39,0,0,1,1.06-4A10,10,0,0,1,785,35.21a22.67,22.67,0,0,1,6.61-2.66,42.38,42.38,0,0,1,10.26-1V29.38q0-3.63-1.53-5.37a5.53,5.53,0,0,0-4.42-1.75,10.61,10.61,0,0,0-3.5.49,13.58,13.58,0,0,0-2.44,1.1c-.69.41-1.32.78-1.9,1.1a3.87,3.87,0,0,1-1.93.49,2.51,2.51,0,0,1-1.5-.45,3.64,3.64,0,0,1-1-1.12L782,21.1A21.35,21.35,0,0,1,797,15.43a14.44,14.44,0,0,1,5.62,1,11.9,11.9,0,0,1,4.18,2.87,12.38,12.38,0,0,1,2.61,4.39,17,17,0,0,1,.89,5.6Zm-16.8-5.39a11.7,11.7,0,0,0,2.45-.24,9.46,9.46,0,0,0,2.12-.72A12.17,12.17,0,0,0,800,44.47a17.5,17.5,0,0,0,1.88-1.67v-6a34.82,34.82,0,0,0-6.32.48,16.61,16.61,0,0,0-4.08,1.22,5.25,5.25,0,0,0-2.19,1.72,3.87,3.87,0,0,0-.64,2.15A3.79,3.79,0,0,0,790,45.63,5.8,5.8,0,0,0,793.47,46.62Z"/><path d="M818.78,63.73V16.1h5.28a2.66,2.66,0,0,1,1.44.38,1.86,1.86,0,0,1,.77,1.19L827,21a18.18,18.18,0,0,1,5-4,13.63,13.63,0,0,1,6.6-1.54,11.72,11.72,0,0,1,5.37,1.23,12.13,12.13,0,0,1,4.2,3.55A17,17,0,0,1,850.85,26a28.94,28.94,0,0,1,1,7.82,24.72,24.72,0,0,1-1.09,7.46,18.18,18.18,0,0,1-3.1,6,14.36,14.36,0,0,1-4.86,3.94,14.21,14.21,0,0,1-6.39,1.41,12.8,12.8,0,0,1-5.16-.92,12.66,12.66,0,0,1-3.8-2.58v14.7Zm16.8-41.47A8.83,8.83,0,0,0,831,23.4a13.34,13.34,0,0,0-3.55,3.2V42.7a8.31,8.31,0,0,0,3.2,2.54,9.64,9.64,0,0,0,3.73.71,8.35,8.35,0,0,0,3.55-.73A7,7,0,0,0,840.6,43a11,11,0,0,0,1.69-3.8,21.54,21.54,0,0,0,.6-5.41,23.83,23.83,0,0,0-.51-5.33,10.37,10.37,0,0,0-1.45-3.56,5.71,5.71,0,0,0-2.29-2A7.15,7.15,0,0,0,835.58,22.26Z"/><g id="Line_19" data-name="Line 19"><path class="cls-1" d="M850.37,81.25h-562a2,2,0,0,1,0-4h562a2,2,0,0,1,0,4Z"/></g></svg>