<svg id="Layer_1" data-name="Layer 1" xmlns="http://www.w3.org/2000/svg" viewBox="0 0 461.2 461.2"><defs><style>.cls-1{fill:#26262c;}</style></defs><title>x-icon</title><path class="cls-1" d="M30.16,481.84a16.3,16.3,0,0,0,23,0L256,279,458.82,481.84a15.9,15.9,0,0,0,11.51,4.76,16.61,16.61,0,0,0,11.51-4.76,16.29,16.29,0,0,0,0-23L279,256,481.84,53.18a16.28,16.28,0,0,0-23-23L256,233,53.18,30.16a16.28,16.28,0,0,0-23,23L233,256,30.16,458.82A16.29,16.29,0,0,0,30.16,481.84Z" transform="translate(-25.4 -25.4)"/></svg>