<svg xmlns="http://www.w3.org/2000/svg" width="22.891" height="19.076" viewBox="0 0 22.891 19.076">
  <g id="bag" transform="translate(0 -42.666)">
    <g id="Group_496" data-name="Group 496" transform="translate(0 42.666)">
      <path id="Path_1521" data-name="Path 1521" d="M20.984,45.527H16.215v-.954a1.91,1.91,0,0,0-1.908-1.908H8.584a1.91,1.91,0,0,0-1.908,1.908v.954H1.908A1.91,1.91,0,0,0,0,47.435v12.4a1.91,1.91,0,0,0,1.908,1.908H20.984a1.91,1.91,0,0,0,1.908-1.908v-12.4A1.91,1.91,0,0,0,20.984,45.527ZM7.63,44.574a.955.955,0,0,1,.954-.954h5.723a.955.955,0,0,1,.954.954v.954H7.63ZM21.938,59.835a.955.955,0,0,1-.954.954H1.908a.955.955,0,0,1-.954-.954V52.893a1.886,1.886,0,0,0,.954.265h7.63v1.431a.477.477,0,0,0,.477.477h2.861a.477.477,0,0,0,.477-.477V53.158h7.63a1.885,1.885,0,0,0,.954-.265v6.942ZM10.492,54.112V52.2H12.4v1.908ZM21.938,51.25a.955.955,0,0,1-.954.954h-7.63v-.477a.477.477,0,0,0-.477-.477H10.015a.477.477,0,0,0-.477.477V52.2H1.908a.955.955,0,0,1-.954-.954V47.435a.955.955,0,0,1,.954-.954H20.984a.955.955,0,0,1,.954.954Z" transform="translate(0 -42.666)"/>
    </g>
  </g>
</svg>
