<svg xmlns="http://www.w3.org/2000/svg" width="21.96" height="18.666" viewBox="0 0 21.96 18.666">
  <g id="hotel" transform="translate(142.331 43.667)">
    <g id="Group_556" data-name="Group 556" transform="translate(-142.331 -43.667)">
      <g id="Group_555" data-name="Group 555" transform="translate(0 0)">
        <path id="Path_1650" data-name="Path 1650" d="M62.433,154.823H59.139v-3.294a2.2,2.2,0,0,0-2.2-2.2H50.355a2.2,2.2,0,0,0-2.2,2.2v3.294H44.865a2.2,2.2,0,0,0-2.2,2.2V167.45a.549.549,0,0,0,.549.549H64.08a.549.549,0,0,0,.549-.549V157.019A2.2,2.2,0,0,0,62.433,154.823ZM48.159,166.9H43.767v-9.882a1.1,1.1,0,0,1,1.1-1.1h3.294V166.9Zm6.588,0h-2.2v-4.392h2.2Zm3.294,0h-2.2V161.96a.549.549,0,0,0-.549-.549H52a.549.549,0,0,0-.549.549V166.9h-2.2V151.529a1.1,1.1,0,0,1,1.1-1.1h6.588a1.1,1.1,0,0,1,1.1,1.1V166.9Zm5.49,0H59.139v-10.98h3.294a1.1,1.1,0,0,1,1.1,1.1Z" transform="translate(-42.669 -149.333)"/>
        <path id="Path_1651" data-name="Path 1651" d="M85.336,300.314a.549.549,0,0,0,.549.549h1.1a.549.549,0,0,0,.549-.549v-1.1a.549.549,0,0,0-.549-.549h-1.1a.549.549,0,0,0-.549.549v1.1Z" transform="translate(-83.14 -290.981)"/>
        <path id="Path_1652" data-name="Path 1652" d="M194.2,192h-1.647a.549.549,0,0,0-.549.549v1.1a.549.549,0,0,0,.549.549H194.2a.549.549,0,0,0,.549-.549v-1.1A.549.549,0,0,0,194.2,192Z" transform="translate(-184.317 -189.804)"/>
        <path id="Path_1653" data-name="Path 1653" d="M268.866,192h-1.647a.549.549,0,0,0-.549.549v1.1a.549.549,0,0,0,.549.549h1.647a.549.549,0,0,0,.549-.549v-1.1A.549.549,0,0,0,268.866,192Z" transform="translate(-255.141 -189.804)"/>
        <path id="Path_1654" data-name="Path 1654" d="M194.2,256h-1.647a.549.549,0,0,0-.549.549v1.1a.549.549,0,0,0,.549.549H194.2a.549.549,0,0,0,.549-.549v-1.1A.549.549,0,0,0,194.2,256Z" transform="translate(-184.317 -250.51)"/>
        <path id="Path_1655" data-name="Path 1655" d="M268.866,256h-1.647a.549.549,0,0,0-.549.549v1.1a.549.549,0,0,0,.549.549h1.647a.549.549,0,0,0,.549-.549v-1.1A.549.549,0,0,0,268.866,256Z" transform="translate(-255.141 -250.51)"/>
        <path id="Path_1656" data-name="Path 1656" d="M194.2,320h-1.647a.549.549,0,0,0-.549.549v1.1a.549.549,0,0,0,.549.549H194.2a.549.549,0,0,0,.549-.549v-1.1A.549.549,0,0,0,194.2,320Z" transform="translate(-184.317 -311.216)"/>
        <path id="Path_1657" data-name="Path 1657" d="M268.866,320h-1.647a.549.549,0,0,0-.549.549v1.1a.549.549,0,0,0,.549.549h1.647a.549.549,0,0,0,.549-.549v-1.1A.549.549,0,0,0,268.866,320Z" transform="translate(-255.141 -311.216)"/>
        <path id="Path_1658" data-name="Path 1658" d="M86.983,362.667h-1.1a.549.549,0,0,0-.549.549v1.1a.549.549,0,0,0,.549.549h1.1a.549.549,0,0,0,.549-.549v-1.1A.549.549,0,0,0,86.983,362.667Z" transform="translate(-83.14 -351.687)"/>
        <path id="Path_1659" data-name="Path 1659" d="M86.983,426.667h-1.1a.549.549,0,0,0-.549.549v1.1a.549.549,0,0,0,.549.549h1.1a.549.549,0,0,0,.549-.549v-1.1A.549.549,0,0,0,86.983,426.667Z" transform="translate(-83.14 -412.393)"/>
        <path id="Path_1660" data-name="Path 1660" d="M385.65,298.667h-1.1a.549.549,0,0,0-.549.549v1.1a.549.549,0,0,0,.549.549h1.1a.549.549,0,0,0,.549-.549v-1.1A.549.549,0,0,0,385.65,298.667Z" transform="translate(-366.435 -290.981)"/>
        <path id="Path_1661" data-name="Path 1661" d="M385.65,362.667h-1.1a.549.549,0,0,0-.549.549v1.1a.549.549,0,0,0,.549.549h1.1a.549.549,0,0,0,.549-.549v-1.1A.549.549,0,0,0,385.65,362.667Z" transform="translate(-366.435 -351.687)"/>
        <path id="Path_1662" data-name="Path 1662" d="M385.65,426.667h-1.1a.549.549,0,0,0-.549.549v1.1a.549.549,0,0,0,.549.549h1.1a.549.549,0,0,0,.549-.549v-1.1A.549.549,0,0,0,385.65,426.667Z" transform="translate(-366.435 -412.393)"/>
      </g>
    </g>
  </g>
</svg>
