<svg xmlns="http://www.w3.org/2000/svg" width="23.102" height="18.366" viewBox="0 0 23.102 18.366">
  <g id="coding" transform="translate(242.873 -62.793)">
    <g id="Group_342" data-name="Group 342" transform="translate(-226.846 65.45)">
      <g id="Group_341" data-name="Group 341">
        <path id="Path_366" data-name="Path 366" d="M362.037,117.293l-5.342-5.66a.866.866,0,1,0-1.26,1.189l4.781,5.065-4.781,5.066a.866.866,0,0,0,1.26,1.19l5.342-5.66A.867.867,0,0,0,362.037,117.293Z" transform="translate(-355.199 -111.361)" fill="#26262c"/>
      </g>
    </g>
    <g id="Group_344" data-name="Group 344" transform="translate(-242.873 65.45)">
      <g id="Group_343" data-name="Group 343">
        <path id="Path_367" data-name="Path 367" d="M6.839,122.951l-4.781-5.065,4.781-5.065a.866.866,0,1,0-1.26-1.189l-5.342,5.66a.867.867,0,0,0,0,1.189l5.343,5.66a.866.866,0,0,0,1.26-1.19Z" transform="translate(-0.001 -111.36)" fill="#26262c"/>
      </g>
    </g>
    <g id="Group_346" data-name="Group 346" transform="translate(-233.459 62.793)">
      <g id="Group_345" data-name="Group 345">
        <path id="Path_368" data-name="Path 368" d="M212.175,52.488a.867.867,0,0,0-.987.726l-2.541,16.633a.867.867,0,0,0,.726.987.893.893,0,0,0,.132.01.867.867,0,0,0,.855-.736L212.9,53.475A.866.866,0,0,0,212.175,52.488Z" transform="translate(-208.636 -52.478)" fill="#26262c"/>
      </g>
    </g>
  </g>
</svg>
