<svg xmlns="http://www.w3.org/2000/svg" width="18.938" height="14.204" viewBox="0 0 18.938 14.204">
  <path id="email" d="M17.163,59.882H1.775A1.777,1.777,0,0,0,0,61.657V72.31a1.777,1.777,0,0,0,1.775,1.775H17.163a1.777,1.777,0,0,0,1.775-1.775V61.657A1.777,1.777,0,0,0,17.163,59.882Zm0,1.184a.588.588,0,0,1,.227.046L9.469,67.976,1.549,61.111a.589.589,0,0,1,.227-.046Zm0,11.837H1.775a.592.592,0,0,1-.592-.592V62.362l7.9,6.845a.593.593,0,0,0,.776,0l7.9-6.845V72.31A.592.592,0,0,1,17.163,72.9Z" transform="translate(0 -59.882)"/>
</svg>
