<svg id="information" xmlns="http://www.w3.org/2000/svg" width="19.837" height="19.837" viewBox="0 0 19.837 19.837">
  <g id="Group_316" data-name="Group 316">
    <g id="Group_315" data-name="Group 315">
      <path id="Path_357" data-name="Path 357" d="M9.918,0a9.918,9.918,0,1,0,9.918,9.918A9.913,9.913,0,0,0,9.918,0Zm0,18.514a8.6,8.6,0,1,1,8.6-8.6A8.606,8.606,0,0,1,9.918,18.514Z" fill="#26262c"/>
    </g>
  </g>
  <g id="Group_318" data-name="Group 318" transform="translate(9.257 8.128)">
    <g id="Group_317" data-name="Group 317">
      <path id="Path_358" data-name="Path 358" d="M239.591,209.777a.661.661,0,0,0-.661.661v5.578a.661.661,0,0,0,1.322,0v-5.578A.661.661,0,0,0,239.591,209.777Z" transform="translate(-238.93 -209.777)" fill="#26262c"/>
    </g>
  </g>
  <g id="Group_320" data-name="Group 320" transform="translate(8.596 4.809)">
    <g id="Group_319" data-name="Group 319">
      <path id="Path_359" data-name="Path 359" d="M223.189,124.122a1.322,1.322,0,1,0,1.322,1.322A1.324,1.324,0,0,0,223.189,124.122Z" transform="translate(-221.867 -124.122)" fill="#26262c"/>
    </g>
  </g>
</svg>
