<svg height="512pt" viewBox="0 0 512 512" width="512pt" xmlns="http://www.w3.org/2000/svg"><path d="m373.851562 308.296875c-1.445312-4.820313-7.390624-7.074219-13.496093-7.074219-5.945313 0-11.890625 2.253906-13.335938 7.074219l-31.011719 101.0625c-.160156.644531-.320312 1.285156-.320312 1.605469 0 5.144531 7.550781 8.675781 13.175781 8.675781 3.535157 0 6.265625-1.121094 7.070313-4.175781l6.101562-21.371094h36.796875l6.109375 21.371094c.800782 3.054687 3.53125 4.175781 7.066406 4.175781 5.625 0 13.175782-3.691406 13.175782-8.675781 0-.480469-.160156-.964844-.320313-1.605469zm-27.476562 69.40625 13.976562-49.324219 13.984376 49.324219zm0 0"/><path d="m456.835938 208.867188h-153.707032v-65.648438l49.953125-35.679688c3.941407-2.816406 6.28125-7.359374 6.28125-12.203124 0-4.847657-2.339843-9.390626-6.28125-12.207032l-50.554687-36.109375c-3.949219-26.570312-26.914063-47.019531-54.5625-47.019531h-192.796875c-30.421875 0-55.167969 24.746094-55.167969 55.167969v192.800781c0 30.417969 24.746094 55.164062 55.167969 55.164062h153.703125v65.648438l-49.953125 35.679688c-3.941407 2.816406-6.28125 7.363281-6.28125 12.207031s2.339843 9.390625 6.28125 12.203125l50.554687 36.109375c3.949219 26.570312 26.914063 47.019531 54.5625 47.019531h192.800782c30.417968 0 55.164062-24.75 55.164062-55.167969v-192.796875c0-30.421875-24.746094-55.167968-55.164062-55.167968zm-401.667969 64.265624c-13.878907 0-25.167969-11.289062-25.167969-25.167968v-192.800782c0-13.875 11.289062-25.164062 25.167969-25.164062h192.796875c13.875 0 25.164062 11.289062 25.164062 25.164062 0 4.847657 2.339844 9.394532 6.28125 12.207032l39.144532 27.960937-39.144532 27.960938c-3.941406 2.816406-6.28125 7.363281-6.28125 12.207031v73.367188h-9.09375c-30.417968 0-55.164062 24.746093-55.164062 55.164062v9.101562zm426.832031 183.699219c0 13.878907-11.289062 25.167969-25.164062 25.167969h-192.800782c-13.875 0-25.164062-11.289062-25.164062-25.167969 0-4.84375-2.339844-9.390625-6.28125-12.203125l-39.144532-27.960937 39.144532-27.960938c3.941406-2.816406 6.28125-7.363281 6.28125-12.207031v-112.464844c0-13.878906 11.289062-25.167968 25.164062-25.167968h24.054688.039062.039063 168.667969c13.875 0 25.164062 11.289062 25.164062 25.167968zm0 0"/><path d="m197.652344 138.277344c4.667968 0 8.457031-3.789063 8.457031-8.460938s-3.789063-8.460937-8.457031-8.460937h-37.628906v-20.539063c0-4.671875-3.789063-8.460937-8.460938-8.460937-4.667969 0-8.457031 3.789062-8.457031 8.460937v20.539063h-37.628907c-4.667968 0-8.457031 3.789062-8.457031 8.460937s3.789063 8.460938 8.457031 8.460938h11.660157c1.863281 17.863281 9.566406 34.007812 21.152343 46.511718-9.605468 5.75-20.824218 9.070313-32.8125 9.070313-4.667968 0-8.457031 3.785156-8.457031 8.457031s3.789063 8.460938 8.457031 8.460938c17.117188 0 32.996094-5.351563 46.085938-14.453125 13.09375 9.101562 28.972656 14.453125 46.089844 14.453125 4.667968 0 8.457031-3.789063 8.457031-8.460938s-3.789063-8.457031-8.457031-8.457031c-11.988282 0-23.207032-3.3125-32.8125-9.070313 11.585937-12.503906 19.289062-28.648437 21.152344-46.511718zm-46.089844 35.941406c-9.253906-9.605469-15.539062-22.078125-17.378906-35.941406h34.761718c-1.839843 13.863281-8.125 26.335937-17.382812 35.941406zm0 0"/></svg>