<?xml version="1.0" standalone="no"?>
<!DOCTYPE svg PUBLIC "-//W3C//DTD SVG 20010904//EN"
 "http://www.w3.org/TR/2001/REC-SVG-20010904/DTD/svg10.dtd">
<svg version="1.0" xmlns="http://www.w3.org/2000/svg"
 width="1280.000000pt" height="917.000000pt" viewBox="0 0 1280.000000 917.000000"
 preserveAspectRatio="xMidYMid meet">
<metadata>
Created by potrace 1.15, written by Peter Selinger 2001-2017
</metadata>
<g transform="translate(0.000000,917.000000) scale(0.100000,-0.100000)"
fill="#000000" stroke="none">
<path d="M988 9155 c-292 -40 -491 -136 -691 -333 -145 -143 -240 -314 -279
-502 -27 -128 -21 -365 11 -485 118 -443 457 -844 936 -1106 44 -24 761 -361
1594 -750 l1514 -706 762 -2254 c419 -1240 772 -2279 784 -2309 12 -30 47
-101 76 -158 138 -265 321 -442 537 -520 66 -24 87 -26 223 -27 112 0 166 5
213 18 207 57 399 174 443 272 10 22 19 62 19 90 0 27 -77 850 -170 1828 -94
979 -169 1781 -168 1783 2 2 204 -91 448 -205 245 -114 1104 -515 1910 -892
l1465 -684 65 0 c53 0 74 5 112 28 26 15 55 39 66 55 41 57 542 1149 548 1194
9 63 -18 141 -65 185 -23 23 -101 65 -221 120 -102 46 -189 88 -193 92 -4 4
389 172 875 372 485 200 898 376 919 391 76 55 104 189 58 281 -49 96 -594
1075 -615 1103 -32 44 -116 84 -173 84 -27 0 -555 -130 -1241 -304 l-1195
-304 -645 306 c-355 168 -671 317 -704 332 l-59 27 1234 847 c679 467 1247
860 1263 874 48 45 66 96 66 195 0 233 -102 470 -277 638 -222 215 -603 251
-1052 100 -64 -22 -852 -327 -1751 -679 -899 -352 -1722 -673 -1827 -715
l-193 -75 -852 400 c-2442 1145 -2706 1267 -2824 1306 -130 43 -270 75 -404
91 -114 15 -423 12 -542 -4z m595 -474 c59 -12 149 -35 199 -52 50 -16 796
-359 1657 -761 861 -402 2567 -1199 3791 -1770 1735 -811 2236 -1041 2275
-1045 36 -4 84 3 175 25 69 17 588 146 1154 287 826 205 1032 253 1041 243 28
-30 375 -662 368 -668 -4 -4 -271 -117 -593 -250 -1528 -632 -1426 -588 -1470
-637 -70 -80 -76 -194 -15 -283 32 -47 41 -52 395 -218 168 -79 308 -146 313
-151 6 -6 -214 -489 -287 -629 l-15 -30 -548 255 c-301 141 -1160 541 -1907
889 -748 349 -1363 637 -1367 641 -4 5 -24 173 -43 376 -23 235 -42 381 -51
405 -61 145 -251 183 -368 73 -46 -42 -67 -93 -67 -163 0 -35 99 -1109 221
-2387 213 -2238 221 -2324 203 -2335 -46 -27 -114 -45 -175 -45 -152 -2 -279
115 -395 365 -46 97 -122 322 -1265 3724 l-664 1975 -45 45 c-114 115 -305 82
-371 -65 -35 -77 -27 -130 60 -386 44 -129 79 -234 78 -236 -4 -3 -2571 1202
-2662 1250 -128 68 -264 167 -378 277 -235 225 -368 481 -368 711 0 162 42
260 161 379 168 167 346 223 690 216 118 -3 196 -10 273 -25z m8447 -238 c94
-30 192 -146 205 -244 l5 -34 -742 -507 c-409 -279 -989 -675 -1289 -881
l-546 -374 -724 338 c-398 186 -730 341 -737 346 -9 5 143 69 420 177 238 93
586 228 773 301 2215 865 2179 851 2324 880 97 19 248 18 311 -2z"/>
</g>
</svg>
