<svg xmlns="http://www.w3.org/2000/svg" width="713.753" height="511.471" viewBox="0 0 713.753 511.471">
  <path id="plane" d="M85.086,304.406a12.483,12.483,0,0,0-6.117,16.344L107.035,381a12.455,12.455,0,0,0,16.465,6.117L335.555,288.07,316.348,488.894a12.478,12.478,0,0,0,4.109,10.48,54.445,54.445,0,0,0,32.938,12.473,40.1,40.1,0,0,0,9.852-1.242c17.215-4.492,30.563-19.832,39.668-46.031l83.449-247.1,165.273-77.094c48.648-22.7,73.719-68.727,56.883-104.652A63.149,63.149,0,0,0,659.746,1.671a115.623,115.623,0,0,0-68.106,10.484L400.914,101.589,195.851,21.382c-25.824-9.727-46.277-9.477-60.621.879a50.869,50.869,0,0,0-18.59,40.285A12.483,12.483,0,0,0,122,72.406l138.082,94.922L181.007,204.75,48.4,171.066a12.48,12.48,0,0,0-13.844,5.988L1.51,236.55A12.475,12.475,0,0,0,8,254.14l98.168,40.543ZM142.207,56.312A21.342,21.342,0,0,1,149.7,42.839c7.113-5.117,20.086-4.367,37.422,2.117l182.617,71.227L286.406,155.1ZM29.949,236.429l21.7-38.543,127.605,31.68a12.5,12.5,0,0,0,8.238-.742L602.245,35.1a91.172,91.172,0,0,1,53.262-8.484,39.067,39.067,0,0,1,30.438,19.707c10.469,22.457-10.109,55.262-44.914,71.477l-143.7,67.363,8.734-25.828A12.681,12.681,0,1,0,482,151.359L379.336,456.836c-6.113,17.344-13.723,27.7-22.2,29.938a21.11,21.11,0,0,1-15.219-2.863l24.949-261.953a12.531,12.531,0,0,0-24.949-2.367l-3.863,40.039L124,359.418,106.417,322l35.168-16.461a12.472,12.472,0,0,0,0-22.828Zm0,0" transform="translate(0.001 -0.376)" fill="#26262c"/>
</svg>
