<svg xmlns="http://www.w3.org/2000/svg" width="26.405" height="25.149" viewBox="0 0 26.405 25.149">
  <g id="travel_1_" data-name="travel (1)" transform="translate(0 -12.175)">
    <g id="Group_499" data-name="Group 499" transform="translate(2.521 14.696)">
      <g id="Group_498" data-name="Group 498">
        <path id="Path_1522" data-name="Path 1522" d="M50.821,61.053a1.934,1.934,0,1,0,1.934,1.934A1.936,1.936,0,0,0,50.821,61.053Zm0,2.321a.387.387,0,1,1,.387-.387A.387.387,0,0,1,50.821,63.374Z" transform="translate(-48.887 -61.053)"/>
      </g>
    </g>
    <g id="Group_501" data-name="Group 501" transform="translate(19.966 27.393)">
      <g id="Group_500" data-name="Group 500">
        <path id="Path_1523" data-name="Path 1523" d="M389.086,307.262a1.934,1.934,0,1,0,1.934,1.934A1.936,1.936,0,0,0,389.086,307.262Zm0,2.321a.387.387,0,1,1,.387-.387A.387.387,0,0,1,389.086,309.583Z" transform="translate(-387.152 -307.262)"/>
      </g>
    </g>
    <g id="Group_503" data-name="Group 503" transform="translate(0 12.175)">
      <g id="Group_502" data-name="Group 502" transform="translate(0 0)">
        <path id="Path_1524" data-name="Path 1524" d="M25.1,26.177a4.454,4.454,0,0,0-6.982,5.42l2.476,4.18H5.6a2.4,2.4,0,0,1,0-4.8h7.264a3.948,3.948,0,0,0,0-7.9H5.812L8.288,18.9a4.454,4.454,0,1,0-7.665,0l3.392,5.727h8.847a2.4,2.4,0,0,1,0,4.8H5.6a3.948,3.948,0,1,0,0,7.9H22.391L25.783,31.6A4.453,4.453,0,0,0,25.1,26.177ZM1.954,18.111a2.907,2.907,0,1,1,5,0l-2.5,4.224Zm22.5,12.7-2.5,4.224-2.5-4.224a2.907,2.907,0,1,1,5,0Z" transform="translate(0 -12.175)"/>
      </g>
    </g>
  </g>
</svg>
