<svg height="512pt" viewBox="0 -12 512 512" width="512pt" xmlns="http://www.w3.org/2000/svg"><path d="m479.820312 31.28125c-68.558593-67.59375-182.546874-17.925781-183.917968 75.351562-.535156 37.429688 17.917968 71.953126 49.359375 92.324219 6.558593 4.25 4.558593 2.644531 43.679687 71.75.699219 1.234375 1.519532 2.332031 2.421875 3.308594l-57.074219 54.984375c-20.710937-20.5625-55.09375-16.75-70.789062 7.992188l-76.179688-45.339844c-.113281-25.105469-20.582031-45.507813-45.71875-45.507813-39.902343 0-60.433593 47.726563-33.523437 76.757813l-49.84375 75.3125c-29.042969-8.308594-58.234375 13.59375-58.234375 43.972656 0 25.203125 20.5 45.714844 45.707031 45.714844 43.96875 0 62.472657-56.355469 27.132813-82.480469l48.160156-72.757813c23.738281 12.082032 53.230469 1.136719 63.148438-24.09375l73.195312 43.566407c-5.910156 28.300781 15.828125 55.011719 44.757812 55.011719 33.265626 0 55.4375-34.636719 41.558594-64.753907 69.808594-67.253906 65.519532-63.019531 66.210938-63.972656 3.648437-1.3125 6.921875-3.878906 9.089844-7.714844 39.101562-69.074219 37.117187-67.5 43.699218-71.761719 30.898438-20.035156 49.339844-53.953124 49.339844-90.726562 0-29.140625-11.425781-56.46875-32.179688-76.9375zm-404.546874 410.90625c0 16.300781-13.265626 29.566406-29.566407 29.566406s-29.554687-13.265625-29.554687-29.566406c0-16.304688 13.253906-29.566406 29.554687-29.566406s29.566407 13.261718 29.566407 29.566406zm42.132812-133.367188c-13.65625-19.363281.210938-46.523437 24.195312-46.523437 16.382813 0 29.566407 13.355469 29.566407 29.566406 0 28.667969-37.136719 40.617188-53.761719 16.957031zm184.695312 82.179688c-19.535156 0-30.976562-18.390625-29.546874-29.820312.175781-25.929688 31.542968-38.992188 50.097656-20.964844 18.9375 18.269531 6.074218 50.785156-20.550782 50.785156zm152.320313-204.761719c-5.207031 3.378907-9.546875 7.960938-12.546875 13.261719-38.898438 68.714844-36.140625 64.816406-37.921875 64.816406-1.785156 0 1.035156 4.007813-37.925781-64.816406-3-5.300781-7.328125-9.882812-12.539063-13.253906-27.039062-17.523438-42.910156-47.199219-42.445312-79.390625 1.167969-81.070313 99.914062-122.191407 158.148437-64.792969 42.3125 41.734375 35.085938 111.851562-14.769531 144.175781zm0 0"/><path d="m464.457031 63.449219c-25.375-34.382813-72.617187-39.871094-105.160156-15.851563-32.679687 24.117188-40.929687 71.179688-15.855469 105.160156 26.667969 36.136719 77.597656 40.417969 110.179688 11.808594 3.351562-2.941406 3.683594-8.042968.742187-11.394531-2.941406-3.351563-8.042969-3.683594-11.398437-.742187-25.671875 22.527343-65.628906 19.058593-86.527344-9.261719-19.679688-26.671875-13.210938-63.636719 12.449219-82.578125 25.644531-18.925782 62.710937-14.460938 82.574219 12.449218 12.816406 17.367188 14.695312 39.367188 6.914062 57.980469-1.71875 4.113281.222656 8.84375 4.335938 10.566407 4.113281 1.714843 8.847656-.222657 10.566406-4.339844 9.632812-23.042969 7.863281-51.191406-8.820313-73.796875zm0 0"/></svg>